<svg viewBox="0 0 478 126" fill="currentColor" xmlns="http://www.w3.org/2000/svg">
<path d="M31.2 30.8C36.6667 30.8 41.2 31.6667 44.8 33.4C48.5333 35 51.4667 37 53.6 39.4C55.8667 41.8 57.5333 44.4 58.6 47.2C59.8 50 60.6667 52.6 61.2 55C61.2 55.9333 60.8667 56.7333 60.2 57.4C59.5333 58.0667 58.7333 58.4 57.8 58.4H46.2C45.2667 58.4 44.4667 58.0667 43.8 57.4C43.2667 56.7333 42.8667 55.9333 42.6 55C42.2 53.2667 41.0667 51.6 39.2 50C37.3333 48.4 35.0667 47.6 32.4 47.6C30.4 47.7333 28.6667 48.1333 27.2 48.8C25.7333 49.4667 24.4667 50.4667 23.4 51.8C22.4667 53.1333 22 55.0667 22 57.6C22 60.5333 23.6667 63.0667 27 65.2C30.4667 67.3333 35.7333 70.3333 42.8 74.2C45.2 75.5333 47.5333 77 49.8 78.6C52.2 80.0667 54.3333 81.8 56.2 83.8C58.2 85.8 59.7333 88.0667 60.8 90.6C62 93.1333 62.6 96.1333 62.6 99.6C62.6 101.867 62.1333 104.533 61.2 107.6C60.2667 110.533 58.6 113.333 56.2 116C53.8 118.667 50.6 120.933 46.6 122.8C42.6 124.533 37.5333 125.4 31.4 125.4C25.9333 125.4 21.3333 124.6 17.6 123C13.8667 121.4 10.8 119.467 8.4 117.2C6 114.8 4.13333 112.267 2.8 109.6C1.6 106.8 0.733334 104.2 0.2 101.8C0.2 100.867 0.533333 100.067 1.2 99.4C1.86667 98.7333 2.66667 98.4 3.6 98.4H15.2C16.1333 98.4 16.8667 98.7333 17.4 99.4C18.0667 100.067 18.5333 100.867 18.8 101.8C19.2 103.533 20.4667 105.2 22.6 106.8C24.7333 108.4 27.1333 109.2 29.8 109.2C33.4 109.2 36.2667 108.533 38.4 107.2C40.6667 105.867 41.8 103.4 41.8 99.8C41.8 96.3333 40.4 93.8 37.6 92.2C34.9333 90.6 31.6 88.7333 27.6 86.6C25.3333 85.4 22.6667 84.0667 19.6 82.6C16.6667 81 13.8 79.1333 11 77C8.33333 74.7333 6 72.0667 4 69C2.13333 65.8 1.2 62.0667 1.2 57.8C1.2 52.8667 2.06667 48.7333 3.8 45.4C5.66667 41.9333 8.06667 39.1333 11 37C13.9333 34.8667 17.1333 33.3333 20.6 32.4C24.2 31.3333 27.7333 30.8 31.2 30.8ZM96.4703 86V95.4C96.4703 99.1333 97.6036 102.267 99.8703 104.8C102.137 107.2 105.204 108.4 109.07 108.4C112.004 108.4 114.47 107.733 116.47 106.4C118.47 105.067 119.87 103.467 120.67 101.6C121.337 100 122.47 99.2 124.07 99.2H138.07C139.004 99.2 139.804 99.5333 140.47 100.2C141.137 100.867 141.47 101.667 141.47 102.6C139.604 109.267 135.67 114.733 129.67 119C123.804 123.133 116.937 125.2 109.07 125.2C104.537 125.2 100.27 124.467 96.2703 123C92.2703 121.533 88.737 119.467 85.6703 116.8C82.6036 114.133 80.137 111 78.2703 107.4C76.537 103.667 75.6703 99.5333 75.6703 95V62.8C75.6703 58.2667 76.4703 54.0667 78.0703 50.2C79.8036 46.2 82.137 42.8 85.0703 40C88.0036 37.0667 91.4703 34.8 95.4703 33.2C99.6036 31.6 104.137 30.8 109.07 30.8C113.87 30.8 118.27 31.6 122.27 33.2C126.404 34.8 129.937 37.0667 132.87 40C135.804 42.8 138.07 46.2 139.67 50.2C141.404 54.0667 142.27 58.2667 142.27 62.8V82.6C142.27 83.5333 141.937 84.3333 141.27 85C140.604 85.6667 139.804 86 138.87 86H96.4703ZM96.4703 69.2H121.47V60.4C121.47 56.8 120.337 53.8 118.07 51.4C115.804 48.8667 112.737 47.6 108.87 47.6C105.004 47.6 101.937 48.8667 99.6703 51.4C97.537 53.8 96.4703 56.8 96.4703 60.4V69.2ZM180.259 86V95.4C180.259 99.1333 181.393 102.267 183.659 104.8C185.926 107.2 188.993 108.4 192.859 108.4C195.793 108.4 198.259 107.733 200.259 106.4C202.259 105.067 203.659 103.467 204.459 101.6C205.126 100 206.259 99.2 207.859 99.2H221.859C222.793 99.2 223.593 99.5333 224.259 100.2C224.926 100.867 225.259 101.667 225.259 102.6C223.393 109.267 219.459 114.733 213.459 119C207.593 123.133 200.726 125.2 192.859 125.2C188.326 125.2 184.059 124.467 180.059 123C176.059 121.533 172.526 119.467 169.459 116.8C166.393 114.133 163.926 111 162.059 107.4C160.326 103.667 159.459 99.5333 159.459 95V62.8C159.459 58.2667 160.259 54.0667 161.859 50.2C163.593 46.2 165.926 42.8 168.859 40C171.793 37.0667 175.259 34.8 179.259 33.2C183.393 31.6 187.926 30.8 192.859 30.8C197.659 30.8 202.059 31.6 206.059 33.2C210.193 34.8 213.726 37.0667 216.659 40C219.593 42.8 221.859 46.2 223.459 50.2C225.193 54.0667 226.059 58.2667 226.059 62.8V82.6C226.059 83.5333 225.726 84.3333 225.059 85C224.393 85.6667 223.593 86 222.659 86H180.259ZM180.259 69.2H205.259V60.4C205.259 56.8 204.126 53.8 201.859 51.4C199.593 48.8667 196.526 47.6 192.659 47.6C188.793 47.6 185.726 48.8667 183.459 51.4C181.326 53.8 180.259 56.8 180.259 60.4V69.2ZM276.848 108.4C280.715 108.4 283.782 107.2 286.048 104.8C288.315 102.267 289.448 99.2 289.448 95.6V94.8C289.448 93.8667 289.782 93.0667 290.448 92.4C291.115 91.7333 291.915 91.4 292.848 91.4H306.848C307.782 91.4 308.582 91.7333 309.248 92.4C309.915 93.0667 310.248 93.8667 310.248 94.8C310.115 99.2 309.115 103.267 307.248 107C305.515 110.6 303.182 113.8 300.248 116.6C297.315 119.267 293.848 121.4 289.848 123C285.848 124.467 281.515 125.2 276.848 125.2C272.315 125.2 267.982 124.467 263.848 123C259.848 121.533 256.315 119.467 253.248 116.8C250.182 114.133 247.715 111 245.848 107.4C244.115 103.667 243.248 99.5333 243.248 95V62.8C243.248 58.2667 244.115 54.0667 245.848 50.2C247.582 46.2 249.915 42.8 252.848 40C255.915 37.0667 259.448 34.8 263.448 33.2C267.582 31.6 272.048 30.8 276.848 30.8C281.515 30.8 285.848 31.6 289.848 33.2C293.848 34.6667 297.315 36.8 300.248 39.6C303.182 42.2667 305.515 45.4667 307.248 49.2C309.115 52.8 310.115 56.8 310.248 61.2C310.248 62.1333 309.915 62.9333 309.248 63.6C308.582 64.2667 307.782 64.6 306.848 64.6H292.848C291.915 64.6 291.115 64.2667 290.448 63.6C289.782 62.9333 289.448 62.1333 289.448 61.2V60.4C289.448 56.8 288.315 53.8 286.048 51.4C283.782 48.8667 280.715 47.6 276.848 47.6C273.115 47.6 270.048 48.8667 267.648 51.4C265.248 53.8 264.048 56.8 264.048 60.4V95.4C264.048 99.1333 265.248 102.267 267.648 104.8C270.048 107.2 273.115 108.4 276.848 108.4ZM326.475 3.8C326.475 2.86666 326.808 2.06666 327.475 1.39999C328.142 0.733327 328.942 0.399994 329.875 0.399994H343.875C344.808 0.399994 345.608 0.733327 346.275 1.39999C346.942 2.06666 347.275 2.86666 347.275 3.8V37.8C350.875 34.4667 354.342 32.4667 357.675 31.8C361.008 31.1333 364.008 30.8 366.675 30.8C375.075 30.8 381.675 33.2 386.475 38C391.408 42.8 393.875 50.2667 393.875 60.4V120.6C393.875 121.533 393.542 122.333 392.875 123C392.208 123.667 391.408 124 390.475 124H376.475C375.542 124 374.742 123.667 374.075 123C373.408 122.333 373.075 121.533 373.075 120.6V60.6C373.075 56.3333 371.808 53.1333 369.275 51C366.742 48.7333 363.808 47.6 360.475 47.6C356.608 47.6 353.408 48.7333 350.875 51C348.475 53.1333 347.275 56.3333 347.275 60.6V120.6C347.275 121.533 346.942 122.333 346.275 123C345.608 123.667 344.808 124 343.875 124H329.875C328.942 124 328.142 123.667 327.475 123C326.808 122.333 326.475 121.533 326.475 120.6V3.8ZM444.222 30.8C449.022 30.8 453.422 31.6 457.422 33.2C461.555 34.8 465.089 37.0667 468.022 40C470.955 42.8 473.222 46.2 474.822 50.2C476.555 54.0667 477.422 58.2667 477.422 62.8V95C477.422 99.5333 476.555 103.667 474.822 107.4C473.089 111 470.689 114.133 467.622 116.8C464.689 119.467 461.155 121.533 457.022 123C453.022 124.467 448.755 125.2 444.222 125.2C439.689 125.2 435.355 124.467 431.222 123C427.222 121.533 423.689 119.467 420.622 116.8C417.689 114.133 415.355 111 413.622 107.4C411.889 103.667 411.022 99.5333 411.022 95V62.8C411.022 58.2667 411.822 54.0667 413.422 50.2C415.155 46.2 417.489 42.8 420.422 40C423.355 37.0667 426.822 34.8 430.822 33.2C434.955 31.6 439.422 30.8 444.222 30.8ZM444.222 108.4C447.955 108.4 450.955 107.2 453.222 104.8C455.489 102.267 456.622 99.1333 456.622 95.4V60.4C456.622 56.8 455.489 53.8 453.222 51.4C450.955 48.8667 447.955 47.6 444.222 47.6C440.489 47.6 437.489 48.8667 435.222 51.4C432.955 53.8 431.822 56.8 431.822 60.4V95.4C431.822 99.1333 432.955 102.267 435.222 104.8C437.489 107.2 440.489 108.4 444.222 108.4Z" fill="currentColor"/>
</svg>
