<svg width="364" height="147" viewBox="0 0 364 147" fill="none" xmlns="http://www.w3.org/2000/svg">
<g filter="url(#filter0_d_1_6)">
<mask id="path-1-outside-1_1_6" maskUnits="userSpaceOnUse" x="3" y="-1" width="358" height="137" fill="black">
<rect fill="white" x="3" y="-1" width="358" height="137"/>
<path d="M41.488 91.48C33.872 91.48 27.248 90.104 21.616 87.352C15.984 84.536 11.664 80.568 8.656 75.448C5.648 70.328 4.144 64.376 4.144 57.592C4.144 48.184 5.904 39.832 9.424 32.536C13.008 25.24 17.84 19.608 23.92 15.64C30 11.608 36.752 9.592 44.176 9.592C51.088 9.592 56.336 11.384 59.92 14.968C63.504 18.488 65.296 23.16 65.296 28.984C65.296 32.888 64.592 36.024 63.184 38.392C61.84 40.76 59.888 41.944 57.328 41.944C55.536 41.944 54.128 41.528 53.104 40.696C52.08 39.864 51.568 38.648 51.568 37.048C51.568 36.472 51.696 35.416 51.952 33.88C52.336 31.96 52.528 30.424 52.528 29.272C52.528 23.448 49.424 20.536 43.216 20.536C38.992 20.536 34.96 21.912 31.12 24.664C27.28 27.416 24.176 31.48 21.808 36.856C19.44 42.168 18.256 48.504 18.256 55.864C18.256 63.544 20.4 69.496 24.688 73.72C28.976 77.88 35.312 79.96 43.696 79.96C47.856 79.96 52.048 79.448 56.272 78.424C60.56 77.336 65.296 75.704 70.48 73.528C71.44 73.144 72.24 72.952 72.88 72.952C73.904 72.952 74.672 73.336 75.184 74.104C75.696 74.872 75.952 75.864 75.952 77.08C75.952 80.984 73.84 83.864 69.616 85.72C65.072 87.704 60.336 89.176 55.408 90.136C50.544 91.032 45.904 91.48 41.488 91.48ZM121.701 69.592C122.533 69.592 123.173 69.976 123.621 70.744C124.133 71.512 124.389 72.568 124.389 73.912C124.389 76.472 123.781 78.456 122.565 79.864C119.621 83.256 116.581 86.04 113.445 88.216C110.373 90.392 106.853 91.48 102.885 91.48C99.6205 91.48 97.1565 90.552 95.4925 88.696C93.8285 86.776 92.9965 84.024 92.9965 80.44C92.9965 78.648 93.4445 75.448 94.3405 70.84C95.1725 66.808 95.5885 64.024 95.5885 62.488C95.5885 61.464 95.2365 60.952 94.5325 60.952C93.7005 60.952 92.5165 62.04 90.9805 64.216C89.4445 66.328 87.9085 69.144 86.3725 72.664C84.8365 76.184 83.5885 79.896 82.6285 83.8C81.4125 88.92 78.4045 91.48 73.6045 91.48C71.6845 91.48 70.4045 90.808 69.7645 89.464C69.1885 88.056 68.9005 85.56 68.9005 81.976C68.9005 79.928 68.9325 78.296 68.9965 77.08L69.0925 69.4C69.0925 59.544 70.0845 49.272 72.0685 38.584C74.1165 27.896 77.0925 18.936 80.9965 11.704C84.9645 4.408 89.7005 0.759995 95.2045 0.759995C98.1485 0.759995 100.517 2.04 102.309 4.6C104.165 7.09599 105.093 10.36 105.093 14.392C105.093 20.856 103.205 27.576 99.4285 34.552C95.6525 41.464 89.5085 49.56 80.9965 58.84C80.8045 62.168 80.7085 65.592 80.7085 69.112C82.8205 63.672 85.1565 59.256 87.7165 55.864C90.3405 52.408 92.9005 49.944 95.3965 48.472C97.9565 47 100.293 46.264 102.405 46.264C106.565 46.264 108.645 48.344 108.645 52.504C108.645 55 107.941 59.512 106.533 66.04C105.317 71.608 104.709 75.288 104.709 77.08C104.709 79.64 105.637 80.92 107.493 80.92C108.773 80.92 110.277 80.152 112.005 78.616C113.797 77.016 116.165 74.456 119.109 70.936C119.877 70.04 120.741 69.592 121.701 69.592ZM93.1885 10.264C92.0365 10.264 90.7565 11.928 89.3485 15.256C87.9405 18.52 86.5645 22.968 85.2205 28.6C83.9405 34.168 82.8845 40.248 82.0525 46.84C86.0205 42.168 89.2845 37.08 91.8445 31.576C94.4685 26.072 95.7805 21.08 95.7805 16.6C95.7805 14.552 95.5565 12.984 95.1085 11.896C94.6605 10.808 94.0205 10.264 93.1885 10.264ZM128.416 91.48C124.448 91.48 121.28 90.04 118.912 87.16C116.544 84.28 115.36 80.504 115.36 75.832C115.36 70.712 116.544 65.88 118.912 61.336C121.28 56.728 124.416 53.048 128.32 50.296C132.288 47.48 136.48 46.072 140.896 46.072C142.304 46.072 143.232 46.36 143.68 46.936C144.192 47.448 144.608 48.408 144.928 49.816C146.272 49.56 147.68 49.432 149.152 49.432C152.288 49.432 153.856 50.552 153.856 52.792C153.856 54.136 153.376 57.336 152.416 62.392C150.944 69.752 150.208 74.872 150.208 77.752C150.208 78.712 150.432 79.48 150.88 80.056C151.392 80.632 152.032 80.92 152.8 80.92C154.016 80.92 155.488 80.152 157.216 78.616C158.944 77.016 161.28 74.456 164.224 70.936C164.992 70.04 165.856 69.592 166.816 69.592C167.648 69.592 168.288 69.976 168.736 70.744C169.248 71.512 169.504 72.568 169.504 73.912C169.504 76.472 168.896 78.456 167.68 79.864C165.056 83.128 162.272 85.88 159.328 88.12C156.384 90.36 153.536 91.48 150.784 91.48C148.672 91.48 146.72 90.776 144.928 89.368C143.2 87.896 141.888 85.912 140.992 83.416C137.664 88.792 133.472 91.48 128.416 91.48ZM131.872 81.784C133.28 81.784 134.624 80.952 135.904 79.288C137.184 77.624 138.112 75.416 138.688 72.664L142.24 55C139.552 55.064 137.056 56.088 134.752 58.072C132.512 59.992 130.72 62.552 129.376 65.752C128.032 68.952 127.36 72.344 127.36 75.928C127.36 77.912 127.744 79.384 128.512 80.344C129.344 81.304 130.464 81.784 131.872 81.784ZM204.518 69.592C205.35 69.592 205.99 69.976 206.438 70.744C206.95 71.512 207.206 72.568 207.206 73.912C207.206 76.472 206.598 78.456 205.382 79.864C202.63 83.256 199.622 86.04 196.358 88.216C193.094 90.392 189.35 91.48 185.126 91.48C172.07 91.48 165.542 82.296 165.542 63.928C165.542 61.112 165.638 58.264 165.83 55.384H162.086C160.166 55.384 158.854 55.032 158.15 54.328C157.51 53.624 157.19 52.504 157.19 50.968C157.19 47.384 158.63 45.592 161.51 45.592H166.982C168.07 38.552 169.734 32.12 171.974 26.296C174.214 20.472 176.902 15.832 180.038 12.376C183.238 8.92 186.662 7.192 190.31 7.192C192.998 7.192 195.11 8.376 196.646 10.744C198.182 13.112 198.95 16.088 198.95 19.672C198.95 29.592 194.79 38.232 186.47 45.592H197.222C198.246 45.592 198.982 45.816 199.43 46.264C199.878 46.712 200.102 47.544 200.102 48.76C200.102 53.176 196.486 55.384 189.254 55.384H177.542C177.414 58.584 177.35 61.08 177.35 62.872C177.35 69.528 178.118 74.2 179.654 76.888C181.254 79.576 183.75 80.92 187.142 80.92C189.894 80.92 192.326 80.088 194.438 78.424C196.55 76.76 199.046 74.264 201.926 70.936C202.694 70.04 203.558 69.592 204.518 69.592ZM187.718 16.408C186.758 16.408 185.67 17.624 184.454 20.056C183.302 22.424 182.182 25.752 181.094 30.04C180.07 34.264 179.206 38.968 178.502 44.152C182.278 40.888 185.094 37.24 186.95 33.208C188.87 29.112 189.83 25.4 189.83 22.072C189.83 18.296 189.126 16.408 187.718 16.408ZM223.581 91.48C219.165 91.48 215.165 90.392 211.581 88.216C208.061 86.04 205.277 82.904 203.229 78.808C201.181 74.648 200.157 69.752 200.157 64.12C200.157 54.392 202.237 45.4 206.397 37.144C210.557 28.824 216.701 22.168 224.829 17.176C232.957 12.12 242.717 9.592 254.109 9.592C257.053 9.592 260.189 9.816 263.517 10.264C266.909 10.712 269.981 11.384 272.733 12.28C274.525 12.792 275.421 14.072 275.421 16.12C275.421 17.784 274.781 19.352 273.501 20.824C272.285 22.296 270.845 23.032 269.181 23.032C268.669 23.032 268.285 23 268.029 22.936C264.701 22.168 261.853 21.624 259.485 21.304C257.117 20.92 254.621 20.728 251.997 20.728C243.869 20.728 236.957 22.712 231.261 26.68C225.565 30.584 221.309 35.768 218.493 42.232C215.677 48.696 214.269 55.672 214.269 63.16C214.269 68.6 215.325 72.824 217.437 75.832C219.613 78.776 222.429 80.248 225.885 80.248C229.789 80.248 233.213 78.648 236.157 75.448C239.101 72.248 241.789 67.064 244.221 59.896C246.653 52.728 249.053 43 251.421 30.712C251.805 28.92 252.573 27.704 253.725 27.064C254.877 26.424 256.413 26.104 258.333 26.104C262.877 26.104 265.149 27.576 265.149 30.52C265.149 31.032 265.053 31.672 264.861 32.44C263.197 38.648 261.661 45.528 260.253 53.08C258.909 60.568 258.237 66.264 258.237 70.168C258.237 73.624 258.749 76.152 259.773 77.752C260.797 79.288 262.365 80.056 264.477 80.056C266.525 80.056 268.477 79.384 270.333 78.04C272.189 76.632 274.525 74.264 277.341 70.936C278.109 70.04 278.973 69.592 279.933 69.592C280.765 69.592 281.405 69.976 281.853 70.744C282.365 71.512 282.621 72.568 282.621 73.912C282.621 76.408 282.013 78.392 280.797 79.864C277.661 83.64 274.589 86.52 271.581 88.504C268.573 90.488 264.893 91.48 260.541 91.48C256.061 91.48 252.445 90.2 249.693 87.64C246.941 85.016 245.213 81.336 244.509 76.6C239.773 86.52 232.797 91.48 223.581 91.48ZM326.122 69.592C326.954 69.592 327.594 69.976 328.042 70.744C328.554 71.512 328.81 72.568 328.81 73.912C328.81 76.472 328.202 78.456 326.986 79.864C324.234 83.256 321.258 86.04 318.058 88.216C314.922 90.392 311.338 91.48 307.306 91.48C303.914 91.48 301.162 90.264 299.05 87.832C295.402 90.2 291.594 91.416 287.626 91.48C286.794 103.832 284.906 114.136 281.962 122.392C279.018 130.712 274.698 134.872 269.002 134.872C265.546 134.872 262.986 133.624 261.322 131.128C259.658 128.632 258.826 125.176 258.826 120.76C258.826 114.488 260.266 107.16 263.146 98.776C266.026 90.456 270.474 81.272 276.49 71.224C276.49 61.88 276.426 55.384 276.298 51.736C276.234 49.88 276.97 48.408 278.506 47.32C280.042 46.232 281.962 45.688 284.266 45.688C285.61 45.688 286.57 45.976 287.146 46.552C287.786 47.064 288.138 48.12 288.202 49.72C288.202 51.32 288.234 52.504 288.298 53.272C290.346 50.712 292.362 48.888 294.346 47.8C296.33 46.648 298.442 46.072 300.682 46.072C304.266 46.072 307.178 47.512 309.418 50.392C311.722 53.272 312.874 57.048 312.874 61.72C312.874 65.112 312.33 68.408 311.242 71.608C310.154 74.808 308.65 77.72 306.73 80.344C308.074 80.728 309.194 80.92 310.09 80.92C312.202 80.92 314.218 80.152 316.138 78.616C318.058 77.08 320.522 74.52 323.53 70.936C324.298 70.04 325.162 69.592 326.122 69.592ZM288.106 82.264C290.41 81.752 292.522 80.504 294.442 78.52C296.426 76.472 297.994 73.976 299.146 71.032C300.298 68.024 300.874 64.888 300.874 61.624C300.874 59.704 300.49 58.264 299.722 57.304C298.954 56.28 297.93 55.768 296.65 55.768C294.346 55.768 291.562 58.2 288.298 63.064C288.234 65.88 288.202 70.008 288.202 75.448C288.202 78.392 288.17 80.664 288.106 82.264ZM269.77 125.464C271.498 125.464 272.938 121.688 274.09 114.136C275.242 106.648 275.978 97.304 276.298 86.104C273.546 92.504 271.37 98.616 269.77 104.44C268.17 110.264 267.37 115.16 267.37 119.128C267.37 121.176 267.626 122.744 268.138 123.832C268.586 124.92 269.13 125.464 269.77 125.464ZM359.093 61.72C359.093 66.776 357.909 71.576 355.541 76.12C353.237 80.6 350.133 84.248 346.229 87.064C342.389 89.88 338.261 91.352 333.845 91.48C333.013 103.832 331.125 114.136 328.181 122.392C325.237 130.712 320.917 134.872 315.221 134.872C311.765 134.872 309.205 133.624 307.541 131.128C305.877 128.632 305.045 125.176 305.045 120.76C305.045 114.488 306.485 107.16 309.365 98.776C312.245 90.456 316.693 81.272 322.709 71.224C322.709 61.88 322.645 55.384 322.517 51.736C322.453 49.88 323.189 48.408 324.725 47.32C326.261 46.232 328.181 45.688 330.485 45.688C331.829 45.688 332.789 45.976 333.365 46.552C334.005 47.064 334.357 48.12 334.421 49.72C334.421 51.32 334.453 52.504 334.517 53.272C336.565 50.712 338.581 48.888 340.565 47.8C342.549 46.648 344.661 46.072 346.901 46.072C350.485 46.072 353.397 47.512 355.637 50.392C357.941 53.272 359.093 57.048 359.093 61.72ZM334.325 82.264C336.629 81.752 338.741 80.504 340.661 78.52C342.645 76.472 344.213 73.976 345.365 71.032C346.517 68.024 347.093 64.888 347.093 61.624C347.093 59.704 346.709 58.264 345.941 57.304C345.173 56.28 344.149 55.768 342.869 55.768C340.565 55.768 337.781 58.2 334.517 63.064C334.453 65.88 334.421 70.008 334.421 75.448C334.421 78.392 334.389 80.664 334.325 82.264ZM315.989 125.464C317.717 125.464 319.157 121.688 320.309 114.136C321.461 106.648 322.197 97.304 322.517 86.104C319.765 92.504 317.589 98.616 315.989 104.44C314.389 110.264 313.589 115.16 313.589 119.128C313.589 121.176 313.845 122.744 314.357 123.832C314.805 124.92 315.349 125.464 315.989 125.464Z"/>
</mask>
<path d="M41.488 91.48C33.872 91.48 27.248 90.104 21.616 87.352C15.984 84.536 11.664 80.568 8.656 75.448C5.648 70.328 4.144 64.376 4.144 57.592C4.144 48.184 5.904 39.832 9.424 32.536C13.008 25.24 17.84 19.608 23.92 15.64C30 11.608 36.752 9.592 44.176 9.592C51.088 9.592 56.336 11.384 59.92 14.968C63.504 18.488 65.296 23.16 65.296 28.984C65.296 32.888 64.592 36.024 63.184 38.392C61.84 40.76 59.888 41.944 57.328 41.944C55.536 41.944 54.128 41.528 53.104 40.696C52.08 39.864 51.568 38.648 51.568 37.048C51.568 36.472 51.696 35.416 51.952 33.88C52.336 31.96 52.528 30.424 52.528 29.272C52.528 23.448 49.424 20.536 43.216 20.536C38.992 20.536 34.96 21.912 31.12 24.664C27.28 27.416 24.176 31.48 21.808 36.856C19.44 42.168 18.256 48.504 18.256 55.864C18.256 63.544 20.4 69.496 24.688 73.72C28.976 77.88 35.312 79.96 43.696 79.96C47.856 79.96 52.048 79.448 56.272 78.424C60.56 77.336 65.296 75.704 70.48 73.528C71.44 73.144 72.24 72.952 72.88 72.952C73.904 72.952 74.672 73.336 75.184 74.104C75.696 74.872 75.952 75.864 75.952 77.08C75.952 80.984 73.84 83.864 69.616 85.72C65.072 87.704 60.336 89.176 55.408 90.136C50.544 91.032 45.904 91.48 41.488 91.48ZM121.701 69.592C122.533 69.592 123.173 69.976 123.621 70.744C124.133 71.512 124.389 72.568 124.389 73.912C124.389 76.472 123.781 78.456 122.565 79.864C119.621 83.256 116.581 86.04 113.445 88.216C110.373 90.392 106.853 91.48 102.885 91.48C99.6205 91.48 97.1565 90.552 95.4925 88.696C93.8285 86.776 92.9965 84.024 92.9965 80.44C92.9965 78.648 93.4445 75.448 94.3405 70.84C95.1725 66.808 95.5885 64.024 95.5885 62.488C95.5885 61.464 95.2365 60.952 94.5325 60.952C93.7005 60.952 92.5165 62.04 90.9805 64.216C89.4445 66.328 87.9085 69.144 86.3725 72.664C84.8365 76.184 83.5885 79.896 82.6285 83.8C81.4125 88.92 78.4045 91.48 73.6045 91.48C71.6845 91.48 70.4045 90.808 69.7645 89.464C69.1885 88.056 68.9005 85.56 68.9005 81.976C68.9005 79.928 68.9325 78.296 68.9965 77.08L69.0925 69.4C69.0925 59.544 70.0845 49.272 72.0685 38.584C74.1165 27.896 77.0925 18.936 80.9965 11.704C84.9645 4.408 89.7005 0.759995 95.2045 0.759995C98.1485 0.759995 100.517 2.04 102.309 4.6C104.165 7.09599 105.093 10.36 105.093 14.392C105.093 20.856 103.205 27.576 99.4285 34.552C95.6525 41.464 89.5085 49.56 80.9965 58.84C80.8045 62.168 80.7085 65.592 80.7085 69.112C82.8205 63.672 85.1565 59.256 87.7165 55.864C90.3405 52.408 92.9005 49.944 95.3965 48.472C97.9565 47 100.293 46.264 102.405 46.264C106.565 46.264 108.645 48.344 108.645 52.504C108.645 55 107.941 59.512 106.533 66.04C105.317 71.608 104.709 75.288 104.709 77.08C104.709 79.64 105.637 80.92 107.493 80.92C108.773 80.92 110.277 80.152 112.005 78.616C113.797 77.016 116.165 74.456 119.109 70.936C119.877 70.04 120.741 69.592 121.701 69.592ZM93.1885 10.264C92.0365 10.264 90.7565 11.928 89.3485 15.256C87.9405 18.52 86.5645 22.968 85.2205 28.6C83.9405 34.168 82.8845 40.248 82.0525 46.84C86.0205 42.168 89.2845 37.08 91.8445 31.576C94.4685 26.072 95.7805 21.08 95.7805 16.6C95.7805 14.552 95.5565 12.984 95.1085 11.896C94.6605 10.808 94.0205 10.264 93.1885 10.264ZM128.416 91.48C124.448 91.48 121.28 90.04 118.912 87.16C116.544 84.28 115.36 80.504 115.36 75.832C115.36 70.712 116.544 65.88 118.912 61.336C121.28 56.728 124.416 53.048 128.32 50.296C132.288 47.48 136.48 46.072 140.896 46.072C142.304 46.072 143.232 46.36 143.68 46.936C144.192 47.448 144.608 48.408 144.928 49.816C146.272 49.56 147.68 49.432 149.152 49.432C152.288 49.432 153.856 50.552 153.856 52.792C153.856 54.136 153.376 57.336 152.416 62.392C150.944 69.752 150.208 74.872 150.208 77.752C150.208 78.712 150.432 79.48 150.88 80.056C151.392 80.632 152.032 80.92 152.8 80.92C154.016 80.92 155.488 80.152 157.216 78.616C158.944 77.016 161.28 74.456 164.224 70.936C164.992 70.04 165.856 69.592 166.816 69.592C167.648 69.592 168.288 69.976 168.736 70.744C169.248 71.512 169.504 72.568 169.504 73.912C169.504 76.472 168.896 78.456 167.68 79.864C165.056 83.128 162.272 85.88 159.328 88.12C156.384 90.36 153.536 91.48 150.784 91.48C148.672 91.48 146.72 90.776 144.928 89.368C143.2 87.896 141.888 85.912 140.992 83.416C137.664 88.792 133.472 91.48 128.416 91.48ZM131.872 81.784C133.28 81.784 134.624 80.952 135.904 79.288C137.184 77.624 138.112 75.416 138.688 72.664L142.24 55C139.552 55.064 137.056 56.088 134.752 58.072C132.512 59.992 130.72 62.552 129.376 65.752C128.032 68.952 127.36 72.344 127.36 75.928C127.36 77.912 127.744 79.384 128.512 80.344C129.344 81.304 130.464 81.784 131.872 81.784ZM204.518 69.592C205.35 69.592 205.99 69.976 206.438 70.744C206.95 71.512 207.206 72.568 207.206 73.912C207.206 76.472 206.598 78.456 205.382 79.864C202.63 83.256 199.622 86.04 196.358 88.216C193.094 90.392 189.35 91.48 185.126 91.48C172.07 91.48 165.542 82.296 165.542 63.928C165.542 61.112 165.638 58.264 165.83 55.384H162.086C160.166 55.384 158.854 55.032 158.15 54.328C157.51 53.624 157.19 52.504 157.19 50.968C157.19 47.384 158.63 45.592 161.51 45.592H166.982C168.07 38.552 169.734 32.12 171.974 26.296C174.214 20.472 176.902 15.832 180.038 12.376C183.238 8.92 186.662 7.192 190.31 7.192C192.998 7.192 195.11 8.376 196.646 10.744C198.182 13.112 198.95 16.088 198.95 19.672C198.95 29.592 194.79 38.232 186.47 45.592H197.222C198.246 45.592 198.982 45.816 199.43 46.264C199.878 46.712 200.102 47.544 200.102 48.76C200.102 53.176 196.486 55.384 189.254 55.384H177.542C177.414 58.584 177.35 61.08 177.35 62.872C177.35 69.528 178.118 74.2 179.654 76.888C181.254 79.576 183.75 80.92 187.142 80.92C189.894 80.92 192.326 80.088 194.438 78.424C196.55 76.76 199.046 74.264 201.926 70.936C202.694 70.04 203.558 69.592 204.518 69.592ZM187.718 16.408C186.758 16.408 185.67 17.624 184.454 20.056C183.302 22.424 182.182 25.752 181.094 30.04C180.07 34.264 179.206 38.968 178.502 44.152C182.278 40.888 185.094 37.24 186.95 33.208C188.87 29.112 189.83 25.4 189.83 22.072C189.83 18.296 189.126 16.408 187.718 16.408ZM223.581 91.48C219.165 91.48 215.165 90.392 211.581 88.216C208.061 86.04 205.277 82.904 203.229 78.808C201.181 74.648 200.157 69.752 200.157 64.12C200.157 54.392 202.237 45.4 206.397 37.144C210.557 28.824 216.701 22.168 224.829 17.176C232.957 12.12 242.717 9.592 254.109 9.592C257.053 9.592 260.189 9.816 263.517 10.264C266.909 10.712 269.981 11.384 272.733 12.28C274.525 12.792 275.421 14.072 275.421 16.12C275.421 17.784 274.781 19.352 273.501 20.824C272.285 22.296 270.845 23.032 269.181 23.032C268.669 23.032 268.285 23 268.029 22.936C264.701 22.168 261.853 21.624 259.485 21.304C257.117 20.92 254.621 20.728 251.997 20.728C243.869 20.728 236.957 22.712 231.261 26.68C225.565 30.584 221.309 35.768 218.493 42.232C215.677 48.696 214.269 55.672 214.269 63.16C214.269 68.6 215.325 72.824 217.437 75.832C219.613 78.776 222.429 80.248 225.885 80.248C229.789 80.248 233.213 78.648 236.157 75.448C239.101 72.248 241.789 67.064 244.221 59.896C246.653 52.728 249.053 43 251.421 30.712C251.805 28.92 252.573 27.704 253.725 27.064C254.877 26.424 256.413 26.104 258.333 26.104C262.877 26.104 265.149 27.576 265.149 30.52C265.149 31.032 265.053 31.672 264.861 32.44C263.197 38.648 261.661 45.528 260.253 53.08C258.909 60.568 258.237 66.264 258.237 70.168C258.237 73.624 258.749 76.152 259.773 77.752C260.797 79.288 262.365 80.056 264.477 80.056C266.525 80.056 268.477 79.384 270.333 78.04C272.189 76.632 274.525 74.264 277.341 70.936C278.109 70.04 278.973 69.592 279.933 69.592C280.765 69.592 281.405 69.976 281.853 70.744C282.365 71.512 282.621 72.568 282.621 73.912C282.621 76.408 282.013 78.392 280.797 79.864C277.661 83.64 274.589 86.52 271.581 88.504C268.573 90.488 264.893 91.48 260.541 91.48C256.061 91.48 252.445 90.2 249.693 87.64C246.941 85.016 245.213 81.336 244.509 76.6C239.773 86.52 232.797 91.48 223.581 91.48ZM326.122 69.592C326.954 69.592 327.594 69.976 328.042 70.744C328.554 71.512 328.81 72.568 328.81 73.912C328.81 76.472 328.202 78.456 326.986 79.864C324.234 83.256 321.258 86.04 318.058 88.216C314.922 90.392 311.338 91.48 307.306 91.48C303.914 91.48 301.162 90.264 299.05 87.832C295.402 90.2 291.594 91.416 287.626 91.48C286.794 103.832 284.906 114.136 281.962 122.392C279.018 130.712 274.698 134.872 269.002 134.872C265.546 134.872 262.986 133.624 261.322 131.128C259.658 128.632 258.826 125.176 258.826 120.76C258.826 114.488 260.266 107.16 263.146 98.776C266.026 90.456 270.474 81.272 276.49 71.224C276.49 61.88 276.426 55.384 276.298 51.736C276.234 49.88 276.97 48.408 278.506 47.32C280.042 46.232 281.962 45.688 284.266 45.688C285.61 45.688 286.57 45.976 287.146 46.552C287.786 47.064 288.138 48.12 288.202 49.72C288.202 51.32 288.234 52.504 288.298 53.272C290.346 50.712 292.362 48.888 294.346 47.8C296.33 46.648 298.442 46.072 300.682 46.072C304.266 46.072 307.178 47.512 309.418 50.392C311.722 53.272 312.874 57.048 312.874 61.72C312.874 65.112 312.33 68.408 311.242 71.608C310.154 74.808 308.65 77.72 306.73 80.344C308.074 80.728 309.194 80.92 310.09 80.92C312.202 80.92 314.218 80.152 316.138 78.616C318.058 77.08 320.522 74.52 323.53 70.936C324.298 70.04 325.162 69.592 326.122 69.592ZM288.106 82.264C290.41 81.752 292.522 80.504 294.442 78.52C296.426 76.472 297.994 73.976 299.146 71.032C300.298 68.024 300.874 64.888 300.874 61.624C300.874 59.704 300.49 58.264 299.722 57.304C298.954 56.28 297.93 55.768 296.65 55.768C294.346 55.768 291.562 58.2 288.298 63.064C288.234 65.88 288.202 70.008 288.202 75.448C288.202 78.392 288.17 80.664 288.106 82.264ZM269.77 125.464C271.498 125.464 272.938 121.688 274.09 114.136C275.242 106.648 275.978 97.304 276.298 86.104C273.546 92.504 271.37 98.616 269.77 104.44C268.17 110.264 267.37 115.16 267.37 119.128C267.37 121.176 267.626 122.744 268.138 123.832C268.586 124.92 269.13 125.464 269.77 125.464ZM359.093 61.72C359.093 66.776 357.909 71.576 355.541 76.12C353.237 80.6 350.133 84.248 346.229 87.064C342.389 89.88 338.261 91.352 333.845 91.48C333.013 103.832 331.125 114.136 328.181 122.392C325.237 130.712 320.917 134.872 315.221 134.872C311.765 134.872 309.205 133.624 307.541 131.128C305.877 128.632 305.045 125.176 305.045 120.76C305.045 114.488 306.485 107.16 309.365 98.776C312.245 90.456 316.693 81.272 322.709 71.224C322.709 61.88 322.645 55.384 322.517 51.736C322.453 49.88 323.189 48.408 324.725 47.32C326.261 46.232 328.181 45.688 330.485 45.688C331.829 45.688 332.789 45.976 333.365 46.552C334.005 47.064 334.357 48.12 334.421 49.72C334.421 51.32 334.453 52.504 334.517 53.272C336.565 50.712 338.581 48.888 340.565 47.8C342.549 46.648 344.661 46.072 346.901 46.072C350.485 46.072 353.397 47.512 355.637 50.392C357.941 53.272 359.093 57.048 359.093 61.72ZM334.325 82.264C336.629 81.752 338.741 80.504 340.661 78.52C342.645 76.472 344.213 73.976 345.365 71.032C346.517 68.024 347.093 64.888 347.093 61.624C347.093 59.704 346.709 58.264 345.941 57.304C345.173 56.28 344.149 55.768 342.869 55.768C340.565 55.768 337.781 58.2 334.517 63.064C334.453 65.88 334.421 70.008 334.421 75.448C334.421 78.392 334.389 80.664 334.325 82.264ZM315.989 125.464C317.717 125.464 319.157 121.688 320.309 114.136C321.461 106.648 322.197 97.304 322.517 86.104C319.765 92.504 317.589 98.616 315.989 104.44C314.389 110.264 313.589 115.16 313.589 119.128C313.589 121.176 313.845 122.744 314.357 123.832C314.805 124.92 315.349 125.464 315.989 125.464Z" fill="url(#paint0_linear_1_6)" shape-rendering="crispEdges"/>
<path d="M21.616 87.352L21.1688 88.2465L21.177 88.2505L21.616 87.352ZM8.656 75.448L7.79379 75.9546L8.656 75.448ZM9.424 32.536L8.52642 32.0951L8.52334 32.1015L9.424 32.536ZM23.92 15.64L24.4666 16.4775L24.4727 16.4734L23.92 15.64ZM59.92 14.968L59.2129 15.6751L59.2193 15.6814L59.92 14.968ZM63.184 38.392L62.3245 37.8809L62.3193 37.8896L62.3143 37.8984L63.184 38.392ZM53.104 40.696L53.7346 39.9199L53.104 40.696ZM51.952 33.88L50.9714 33.6839L50.9683 33.6997L50.9656 33.7156L51.952 33.88ZM31.12 24.664L30.5375 23.8512L31.12 24.664ZM21.808 36.856L22.7214 37.2632L22.7232 37.2591L21.808 36.856ZM24.688 73.72L23.9862 74.4324L23.9917 74.4377L24.688 73.72ZM56.272 78.424L56.5076 79.3959L56.5179 79.3933L56.272 78.424ZM70.48 73.528L70.1086 72.5995L70.1008 72.6027L70.093 72.6059L70.48 73.528ZM75.184 74.104L74.352 74.6587L75.184 74.104ZM69.616 85.72L70.0161 86.6365L70.0183 86.6355L69.616 85.72ZM55.408 90.136L55.5892 91.1195L55.5992 91.1175L55.408 90.136ZM41.488 90.48C33.992 90.48 27.5241 89.1259 22.055 86.4535L21.177 88.2505C26.9719 91.0821 33.752 92.48 41.488 92.48V90.48ZM22.0632 86.4576C16.5932 83.7226 12.4223 79.8845 9.51821 74.9415L7.79379 75.9546C10.9057 81.2515 15.3748 85.3494 21.1688 88.2464L22.0632 86.4576ZM9.51821 74.9415C6.61267 69.9958 5.144 64.2237 5.144 57.592H3.144C3.144 64.5283 4.68333 70.6602 7.79379 75.9546L9.51821 74.9415ZM5.144 57.592C5.144 48.3103 6.87981 40.1108 10.3247 32.9705L8.52334 32.1015C4.92819 39.5532 3.144 48.0577 3.144 57.592H5.144ZM10.3216 32.9769C13.836 25.8224 18.5545 20.3358 24.4665 16.4774L23.3735 14.8026C17.1255 18.8802 12.18 24.6575 8.52645 32.0951L10.3216 32.9769ZM24.4727 16.4734C30.3858 12.5521 36.9449 10.592 44.176 10.592V8.592C36.5591 8.592 29.6142 10.6639 23.3673 14.8066L24.4727 16.4734ZM44.176 10.592C50.9216 10.592 55.8764 12.3386 59.2129 15.6751L60.6271 14.2609C56.7957 10.4294 51.2544 8.592 44.176 8.592V10.592ZM59.2193 15.6814C62.5811 18.9832 64.296 23.3819 64.296 28.984H66.296C66.296 22.938 64.4269 17.9928 60.6207 14.2545L59.2193 15.6814ZM64.296 28.984C64.296 32.7793 63.6099 35.719 62.3245 37.8809L64.0435 38.9031C65.5741 36.329 66.296 32.9967 66.296 28.984H64.296ZM62.3143 37.8984C61.1341 39.9778 59.5008 40.944 57.328 40.944V42.944C60.2752 42.944 62.5459 41.5422 64.0537 38.8856L62.3143 37.8984ZM57.328 40.944C55.6837 40.944 54.5257 40.5627 53.7346 39.9199L52.4734 41.4721C53.7303 42.4933 55.3883 42.944 57.328 42.944V40.944ZM53.7346 39.9199C52.9942 39.3183 52.568 38.4176 52.568 37.048H50.568C50.568 38.8784 51.1658 40.4097 52.4734 41.4721L53.7346 39.9199ZM52.568 37.048C52.568 36.5663 52.6812 35.5878 52.9384 34.0444L50.9656 33.7156C50.7108 35.2442 50.568 36.3777 50.568 37.048H52.568ZM52.9326 34.0761C53.3219 32.1296 53.528 30.5198 53.528 29.272H51.528C51.528 30.3282 51.3501 31.7904 50.9714 33.6839L52.9326 34.0761ZM53.528 29.272C53.528 26.1889 52.7034 23.6973 50.8842 21.9907C49.077 20.2953 46.4588 19.536 43.216 19.536V21.536C46.1812 21.536 48.219 22.2327 49.5158 23.4493C50.8006 24.6546 51.528 26.5311 51.528 29.272H53.528ZM43.216 19.536C38.7586 19.536 34.5263 20.9925 30.5375 23.8512L31.7025 25.4768C35.3937 22.8315 39.2254 21.536 43.216 21.536V19.536ZM30.5375 23.8512C26.5204 26.7301 23.3156 30.9526 20.8928 36.4529L22.7232 37.2591C25.0364 32.0074 28.0396 28.1019 31.7025 25.4768L30.5375 23.8512ZM20.8946 36.4488C18.4565 41.9182 17.256 48.3997 17.256 55.864H19.256C19.256 48.6083 20.4235 42.4178 22.7214 37.2632L20.8946 36.4488ZM17.256 55.864C17.256 63.7341 19.4584 69.9721 23.9862 74.4324L25.3898 73.0076C21.3416 69.0199 19.256 63.3539 19.256 55.864H17.256ZM23.9917 74.4377C28.5305 78.8411 35.1579 80.96 43.696 80.96V78.96C35.4661 78.96 29.4215 76.9189 25.3843 73.0023L23.9917 74.4377ZM43.696 80.96C47.9389 80.96 52.2099 80.4377 56.5076 79.3959L56.0364 77.4521C51.8861 78.4583 47.7732 78.96 43.696 78.96V80.96ZM56.5179 79.3933C60.8649 78.2903 65.6489 76.6404 70.867 74.4501L70.093 72.6059C64.9431 74.7676 60.2551 76.3817 56.0261 77.4547L56.5179 79.3933ZM70.8514 74.4565C71.7571 74.0942 72.4215 73.952 72.88 73.952V71.952C72.0585 71.952 71.1229 72.1938 70.1086 72.5995L70.8514 74.4565ZM72.88 73.952C73.6127 73.952 74.0481 74.2029 74.352 74.6587L76.0161 73.5493C75.2959 72.4691 74.1953 71.952 72.88 71.952V73.952ZM74.352 74.6587C74.7246 75.2177 74.952 75.9997 74.952 77.08H76.952C76.952 75.7282 76.6674 74.5263 76.0161 73.5493L74.352 74.6587ZM74.952 77.08C74.952 78.8402 74.48 80.3243 73.5616 81.5766C72.6356 82.8394 71.2108 83.927 69.2137 84.8045L70.0183 86.6355C72.2452 85.657 73.9884 84.3766 75.1744 82.7594C76.368 81.1317 76.952 79.2238 76.952 77.08H74.952ZM69.2159 84.8035C64.7398 86.7579 60.0739 88.2083 55.2168 89.1544L55.5992 91.1175C60.5981 90.1437 65.4043 88.6501 70.0161 86.6365L69.2159 84.8035ZM55.2268 89.1525C50.4156 90.0388 45.8365 90.48 41.488 90.48V92.48C45.9715 92.48 50.6724 92.0252 55.5892 91.1195L55.2268 89.1525ZM123.62 70.744L122.757 71.2479L122.772 71.2738L122.788 71.2987L123.62 70.744ZM122.565 79.864L123.32 80.5195L123.321 80.5176L122.565 79.864ZM113.445 88.216L112.874 87.3944L112.866 87.4L113.445 88.216ZM95.4925 88.696L94.7368 89.3509L94.7423 89.3573L94.7479 89.3635L95.4925 88.696ZM94.3405 70.84L93.3611 70.6379L93.3589 70.6491L94.3405 70.84ZM90.9805 64.216L91.7893 64.8042L91.7975 64.7927L90.9805 64.216ZM86.3725 72.664L87.289 73.0639L86.3725 72.664ZM82.6285 83.8L81.6574 83.5612L81.6556 83.5689L82.6285 83.8ZM69.7645 89.464L68.839 89.8426L68.8496 89.8686L68.8616 89.8939L69.7645 89.464ZM68.9965 77.08L69.9951 77.1326L69.9962 77.1125L69.9964 77.0925L68.9965 77.08ZM69.0925 69.4L70.0925 69.4125V69.4H69.0925ZM72.0685 38.584L71.0863 38.3958L71.0853 38.4015L72.0685 38.584ZM80.9965 11.704L80.118 11.2262L80.1165 11.229L80.9965 11.704ZM102.309 4.6L101.489 5.17346L101.497 5.1852L101.506 5.1967L102.309 4.6ZM99.4285 34.552L100.306 35.0314L100.308 35.028L99.4285 34.552ZM80.9965 58.84L80.2596 58.164L80.0187 58.4267L79.9982 58.7824L80.9965 58.84ZM80.7085 69.112H79.7085L81.6407 69.4739L80.7085 69.112ZM87.7165 55.864L86.9201 55.2593L86.9183 55.2616L87.7165 55.864ZM95.3965 48.472L94.898 47.605L94.8885 47.6106L95.3965 48.472ZM106.533 66.04L107.509 66.2534L107.51 66.2508L106.533 66.04ZM112.005 78.616L112.669 79.3634L112.671 79.3619L112.005 78.616ZM119.109 70.936L118.349 70.2852L118.341 70.2944L119.109 70.936ZM89.3485 15.256L90.2667 15.6521L90.2695 15.6456L89.3485 15.256ZM85.2205 28.6L84.2478 28.3679L84.2459 28.376L85.2205 28.6ZM82.0525 46.84L81.0604 46.7148L80.6396 50.0483L82.8147 47.4873L82.0525 46.84ZM91.8445 31.576L90.9418 31.1456L90.9378 31.1543L91.8445 31.576ZM95.1085 11.896L96.0332 11.5152L95.1085 11.896ZM121.701 70.592C122.148 70.592 122.473 70.7614 122.757 71.2479L124.484 70.2401C123.872 69.1906 122.917 68.592 121.701 68.592V70.592ZM122.788 71.2987C123.152 71.8434 123.389 72.68 123.389 73.912H125.389C125.389 72.456 125.113 71.1806 124.453 70.1893L122.788 71.2987ZM123.389 73.912C123.389 76.3222 122.816 78.0423 121.808 79.2104L123.321 80.5176C124.745 78.8697 125.389 76.6218 125.389 73.912H123.389ZM121.809 79.2085C118.911 82.5484 115.931 85.2733 112.874 87.3944L114.015 89.0376C117.23 86.8067 120.33 83.9636 123.32 80.5195L121.809 79.2085ZM112.866 87.4C109.973 89.4496 106.657 90.48 102.884 90.48V92.48C107.048 92.48 110.772 91.3344 114.023 89.032L112.866 87.4ZM102.884 90.48C99.8116 90.48 97.6571 89.6123 96.2371 88.0285L94.7479 89.3635C96.6559 91.4917 99.4294 92.48 102.884 92.48V90.48ZM96.2482 88.0411C94.7958 86.3653 93.9965 83.8813 93.9965 80.44H91.9965C91.9965 84.1667 92.8612 87.1867 94.7368 89.3509L96.2482 88.0411ZM93.9965 80.44C93.9965 78.7568 94.4249 75.6453 95.3221 71.0309L93.3589 70.6491C92.4641 75.2507 91.9965 78.5392 91.9965 80.44H93.9965ZM95.3199 71.0421C96.1501 67.0187 96.5885 64.1401 96.5885 62.488H94.5885C94.5885 63.9079 94.1949 66.5973 93.3611 70.6379L95.3199 71.0421ZM96.5885 62.488C96.5885 61.8925 96.4918 61.2687 96.1485 60.7695C95.7589 60.2027 95.1628 59.952 94.5325 59.952V61.952C94.5872 61.952 94.5867 61.9616 94.5582 61.9478C94.525 61.9317 94.5047 61.9086 94.5005 61.9025C94.5003 61.9024 94.5064 61.9111 94.5156 61.9333C94.5248 61.9557 94.5365 61.9901 94.5478 62.0394C94.5708 62.1401 94.5885 62.2861 94.5885 62.488H96.5885ZM94.5325 59.952C93.7178 59.952 92.9703 60.456 92.3439 61.0317C91.6767 61.6447 90.9496 62.5258 90.1635 63.6393L91.7975 64.7927C92.5474 63.7302 93.1803 62.9792 93.6971 62.5043C93.9546 62.2677 94.1611 62.1204 94.3174 62.036C94.4758 61.9506 94.541 61.952 94.5325 61.952V59.952ZM90.1718 63.6278C88.5783 65.8189 87.0088 68.7056 85.456 72.2641L87.289 73.0639C88.8082 69.5824 90.3107 66.8371 91.7892 64.8042L90.1718 63.6278ZM85.456 72.2641C83.8962 75.8385 82.6304 79.6046 81.6574 83.5612L83.5996 84.0388C84.5466 80.1874 85.7768 76.5295 87.289 73.0639L85.456 72.2641ZM81.6556 83.5689C81.0805 85.9902 80.1083 87.6956 78.8124 88.7985C77.526 89.8932 75.8202 90.48 73.6045 90.48V92.48C76.1888 92.48 78.387 91.7868 80.1086 90.3215C81.8207 88.8644 82.9605 86.7298 83.6014 84.0311L81.6556 83.5689ZM73.6045 90.48C71.9367 90.48 71.0909 89.9236 70.6674 89.0341L68.8616 89.8939C69.7181 91.6924 71.4323 92.48 73.6045 92.48V90.48ZM70.69 89.0854C70.1957 87.8771 69.9005 85.5595 69.9005 81.976H67.9005C67.9005 85.5605 68.1813 88.2349 68.839 89.8426L70.69 89.0854ZM69.9005 81.976C69.9005 79.9355 69.9324 78.3233 69.9951 77.1326L67.9979 77.0274C67.9325 78.2687 67.9005 79.9205 67.9005 81.976H69.9005ZM69.9964 77.0925L70.0924 69.4125L68.0926 69.3875L67.9966 77.0675L69.9964 77.0925ZM70.0925 69.4C70.0925 59.6111 71.0778 49.4004 73.0517 38.7665L71.0853 38.4015C69.0912 49.1436 68.0925 59.4769 68.0925 69.4H70.0925ZM73.0506 38.7722C75.0853 28.154 78.0338 19.2975 81.8765 12.179L80.1165 11.229C76.1512 18.5745 73.1478 27.638 71.0864 38.3958L73.0506 38.7722ZM81.875 12.1818C85.7656 5.02801 90.2338 1.75999 95.2045 1.75999V-0.240005C89.1672 -0.240005 84.1634 3.78798 80.118 11.2262L81.875 12.1818ZM95.2045 1.75999C97.7992 1.75999 99.8708 2.86139 101.489 5.17346L103.128 4.02654C101.162 1.2186 98.4978 -0.240005 95.2045 -0.240005V1.75999ZM101.506 5.1967C103.2 7.4752 104.092 10.5112 104.092 14.392H106.092C106.092 10.2088 105.129 6.71679 103.111 4.00329L101.506 5.1967ZM104.092 14.392C104.092 20.6561 102.264 27.2133 98.5491 34.076L100.308 35.028C104.145 27.9387 106.092 21.0559 106.092 14.392H104.092ZM98.5509 34.0726C94.8297 40.8844 88.7453 48.9127 80.2596 58.164L81.7334 59.516C90.2717 50.2073 96.4753 42.0436 100.306 35.0314L98.5509 34.0726ZM79.9982 58.7824C79.805 62.1306 79.7085 65.5738 79.7085 69.112H81.7085C81.7085 65.6101 81.804 62.2054 81.9948 58.8976L79.9982 58.7824ZM81.6407 69.4739C83.7308 64.0903 86.0266 59.7632 88.5147 56.4664L86.9183 55.2616C84.2864 58.7488 81.9102 63.2537 79.7763 68.7501L81.6407 69.4739ZM88.5129 56.4687C91.0938 53.0696 93.5617 50.715 95.9045 49.3334L94.8885 47.6106C92.2393 49.173 89.5872 51.7464 86.9201 55.2593L88.5129 56.4687ZM95.895 49.3389C98.3607 47.9211 100.523 47.264 102.405 47.264V45.264C100.062 45.264 97.5523 46.0789 94.898 47.6051L95.895 49.3389ZM102.405 47.264C104.33 47.264 105.591 47.7448 106.377 48.5311C107.164 49.3174 107.645 50.5781 107.645 52.504H109.645C109.645 50.2699 109.085 48.4106 107.792 47.1169C106.498 45.8232 104.639 45.264 102.405 45.264V47.264ZM107.645 52.504C107.645 54.8789 106.965 59.2923 105.555 65.8292L107.51 66.2508C108.916 59.7317 109.645 55.1211 109.645 52.504H107.645ZM105.556 65.8266C104.344 71.3719 103.709 75.1605 103.709 77.08H105.709C105.709 75.4155 106.289 71.8441 107.509 66.2534L105.556 65.8266ZM103.709 77.08C103.709 78.451 103.952 79.6597 104.595 80.547C105.281 81.4939 106.308 81.92 107.493 81.92V79.92C106.821 79.92 106.456 79.7061 106.214 79.373C105.929 78.9803 105.709 78.269 105.709 77.08H103.709ZM107.493 81.92C109.15 81.92 110.89 80.9445 112.669 79.3634L111.34 77.8686C109.663 79.3595 108.395 79.92 107.493 79.92V81.92ZM112.671 79.3619C114.518 77.7125 116.923 75.1077 119.876 71.5776L118.341 70.2944C115.406 73.8043 113.075 76.3195 111.338 77.8701L112.671 79.3619ZM119.868 71.5868C120.493 70.8571 121.098 70.592 121.701 70.592V68.592C120.383 68.592 119.26 69.2229 118.349 70.2852L119.868 71.5868ZM93.1885 9.264C92.1216 9.264 91.2538 10.0157 90.5719 10.9023C89.8557 11.8333 89.1446 13.1715 88.4275 14.8664L90.2695 15.6456C90.9604 14.0125 91.5933 12.8547 92.1571 12.1217C92.7552 11.3442 93.1034 11.264 93.1885 11.264V9.264ZM88.4303 14.8599C86.9898 18.1993 85.598 22.71 84.2478 28.3679L86.1932 28.8321C87.531 23.226 88.8913 18.8407 90.2667 15.6521L88.4303 14.8599ZM84.2459 28.376C82.9573 33.9813 81.8959 40.0948 81.0604 46.7148L83.0446 46.9652C83.8731 40.4012 84.9237 34.3547 86.1951 28.824L84.2459 28.376ZM82.8147 47.4873C86.8402 42.7476 90.153 37.5839 92.7512 31.9977L90.9378 31.1543C88.416 36.5761 85.2008 41.5884 81.2903 46.1927L82.8147 47.4873ZM92.7472 32.0063C95.4134 26.4138 96.7805 21.2725 96.7805 16.6H94.7805C94.7805 20.8875 93.5236 25.7302 90.9418 31.1457L92.7472 32.0063ZM96.7805 16.6C96.7805 14.5037 96.5548 12.7821 96.0332 11.5152L94.1838 12.2767C94.5582 13.1859 94.7805 14.6003 94.7805 16.6H96.7805ZM96.0332 11.5152C95.5066 10.2364 94.5932 9.264 93.1885 9.264V11.264C93.4478 11.264 93.8144 11.3796 94.1838 12.2767L96.0332 11.5152ZM118.912 87.16L119.684 86.5249L118.912 87.16ZM118.912 61.336L119.799 61.7981L119.801 61.7931L118.912 61.336ZM128.32 50.296L128.896 51.1133L128.899 51.1115L128.32 50.296ZM143.68 46.936L142.891 47.5499L142.929 47.5991L142.973 47.6431L143.68 46.936ZM144.928 49.816L143.953 50.0376L144.167 50.979L145.115 50.7983L144.928 49.816ZM152.416 62.392L153.397 62.5881L153.398 62.5785L152.416 62.392ZM150.88 80.056L150.091 80.6699L150.111 80.6958L150.133 80.7204L150.88 80.056ZM157.216 78.616L157.88 79.3634L157.888 79.3567L157.895 79.3498L157.216 78.616ZM164.224 70.936L163.465 70.2852L163.457 70.2944L164.224 70.936ZM168.736 70.744L167.872 71.2479L167.887 71.2738L167.904 71.2987L168.736 70.744ZM167.68 79.864L166.923 79.2104L166.912 79.2237L166.901 79.2374L167.68 79.864ZM159.328 88.12L159.934 88.9158L159.328 88.12ZM144.928 89.368L144.28 90.1292L144.295 90.1421L144.31 90.1543L144.928 89.368ZM140.992 83.416L141.933 83.0781L141.233 81.1271L140.142 82.8896L140.992 83.416ZM135.904 79.288L135.111 78.6783L135.904 79.288ZM138.688 72.664L139.667 72.8689L139.668 72.8611L138.688 72.664ZM142.24 55L143.22 55.1971L143.467 53.9705L142.216 54.0003L142.24 55ZM134.752 58.072L135.403 58.8313L135.405 58.8298L134.752 58.072ZM129.376 65.752L130.298 66.1392L129.376 65.752ZM128.512 80.344L127.731 80.9687L127.743 80.9841L127.756 80.9989L128.512 80.344ZM128.416 90.48C124.725 90.48 121.849 89.1574 119.684 86.5249L118.14 87.7951C120.711 90.9226 124.171 92.48 128.416 92.48V90.48ZM119.684 86.5249C117.498 83.8654 116.36 80.3325 116.36 75.832H114.36C114.36 80.6755 115.59 84.6946 118.14 87.7951L119.684 86.5249ZM116.36 75.832C116.36 70.873 117.505 66.1996 119.799 61.7981L118.025 60.8739C115.583 65.5604 114.36 70.551 114.36 75.832H116.36ZM119.801 61.7931C122.102 57.3163 125.135 53.7646 128.896 51.1133L127.744 49.4787C123.697 52.3314 120.458 56.1397 118.023 60.8789L119.801 61.7931ZM128.899 51.1115C132.716 48.4027 136.708 47.072 140.896 47.072V45.072C136.252 45.072 131.86 46.5573 127.741 49.4805L128.899 51.1115ZM140.896 47.072C142.259 47.072 142.75 47.3689 142.891 47.5499L144.469 46.3221C143.714 45.3511 142.349 45.072 140.896 45.072V47.072ZM142.973 47.6431C143.273 47.9437 143.64 48.663 143.953 50.0376L145.903 49.5944C145.576 48.153 145.111 46.9523 144.387 46.2289L142.973 47.6431ZM145.115 50.7983C146.393 50.5549 147.738 50.432 149.152 50.432V48.432C147.622 48.432 146.151 48.5651 144.741 48.8337L145.115 50.7983ZM149.152 50.432C150.631 50.432 151.561 50.7016 152.099 51.0857C152.575 51.4256 152.856 51.9348 152.856 52.792H154.856C154.856 51.4092 154.353 50.2384 153.261 49.4583C152.231 48.7224 150.809 48.432 149.152 48.432V50.432ZM152.856 52.792C152.856 54.0213 152.4 57.1173 151.434 62.2055L153.398 62.5785C154.352 57.5547 154.856 54.2507 154.856 52.792H152.856ZM151.435 62.1959C149.965 69.5497 149.208 74.7603 149.208 77.752H151.208C151.208 74.9837 151.923 69.9543 153.397 62.5881L151.435 62.1959ZM149.208 77.752C149.208 78.864 149.468 79.87 150.091 80.6699L151.669 79.4421C151.396 79.09 151.208 78.56 151.208 77.752H149.208ZM150.133 80.7204C150.834 81.509 151.745 81.92 152.8 81.92V79.92C152.319 79.92 151.95 79.755 151.627 79.3916L150.133 80.7204ZM152.8 81.92C154.402 81.92 156.114 80.9338 157.88 79.3634L156.552 77.8686C154.862 79.3702 153.63 79.92 152.8 79.92V81.92ZM157.895 79.3498C159.671 77.7053 162.04 75.1057 164.991 71.5776L163.457 70.2944C160.52 73.8063 158.217 76.3267 156.537 77.8822L157.895 79.3498ZM164.983 71.5868C165.609 70.8571 166.214 70.592 166.816 70.592V68.592C165.498 68.592 164.375 69.2229 163.465 70.2852L164.983 71.5868ZM166.816 70.592C167.264 70.592 167.588 70.7614 167.872 71.2479L169.6 70.2401C168.988 69.1906 168.032 68.592 166.816 68.592V70.592ZM167.904 71.2987C168.267 71.8434 168.504 72.68 168.504 73.912H170.504C170.504 72.456 170.229 71.1806 169.568 70.1893L167.904 71.2987ZM168.504 73.912C168.504 76.3222 167.932 78.0423 166.923 79.2104L168.437 80.5176C169.86 78.8697 170.504 76.6218 170.504 73.912H168.504ZM166.901 79.2374C164.321 82.4463 161.594 85.1393 158.722 87.3242L159.934 88.9158C162.95 86.6207 165.791 83.8097 168.459 80.4906L166.901 79.2374ZM158.722 87.3242C155.893 89.4769 153.253 90.48 150.784 90.48V92.48C153.819 92.48 156.875 91.2431 159.934 88.9158L158.722 87.3242ZM150.784 90.48C148.914 90.48 147.176 89.8629 145.546 88.5817L144.31 90.1543C146.264 91.6891 148.43 92.48 150.784 92.48V90.48ZM145.576 88.6068C144.002 87.2657 142.78 85.4378 141.933 83.0781L140.051 83.7539C140.996 86.3862 142.398 88.5263 144.28 90.1292L145.576 88.6068ZM140.142 82.8896C136.944 88.056 133.036 90.48 128.416 90.48V92.48C133.908 92.48 138.384 89.528 141.842 83.9424L140.142 82.8896ZM131.872 82.784C133.72 82.784 135.323 81.6828 136.697 79.8977L135.111 78.6783C133.925 80.2212 132.84 80.784 131.872 80.784V82.784ZM136.697 79.8977C138.094 78.0812 139.07 75.7205 139.667 72.8689L137.709 72.4591C137.154 75.1115 136.274 77.1668 135.111 78.6783L136.697 79.8977ZM139.668 72.8611L143.22 55.1971L141.26 54.8029L137.708 72.4669L139.668 72.8611ZM142.216 54.0003C139.267 54.0705 136.554 55.2002 134.099 57.3142L135.405 58.8298C137.558 56.9758 139.837 56.0575 142.264 55.9997L142.216 54.0003ZM134.101 57.3127C131.724 59.3504 129.848 62.0466 128.454 65.3648L130.298 66.1392C131.592 63.0574 133.3 60.6336 135.403 58.8313L134.101 57.3127ZM128.454 65.3648C127.057 68.6914 126.36 72.2155 126.36 75.928H128.36C128.36 72.4725 129.007 69.2126 130.298 66.1392L128.454 65.3648ZM126.36 75.928C126.36 78.0095 126.757 79.7514 127.731 80.9687L129.293 79.7193C128.731 79.0166 128.36 77.8145 128.36 75.928H126.36ZM127.756 80.9989C128.8 82.2034 130.209 82.784 131.872 82.784V80.784C130.719 80.784 129.888 80.4046 129.268 79.6891L127.756 80.9989ZM206.438 70.744L205.574 71.2479L205.589 71.2738L205.606 71.2987L206.438 70.744ZM205.382 79.864L204.625 79.2104L204.615 79.222L204.605 79.234L205.382 79.864ZM196.358 88.216L195.803 87.3839L196.358 88.216ZM165.83 55.384L166.828 55.4505L166.899 54.384H165.83V55.384ZM158.15 54.328L157.41 55.0007L157.426 55.0183L157.443 55.0351L158.15 54.328ZM166.982 45.592V46.592H167.839L167.97 45.7447L166.982 45.592ZM171.974 26.296L171.04 25.937L171.974 26.296ZM180.038 12.376L179.304 11.6966L179.297 11.704L180.038 12.376ZM196.646 10.744L197.485 10.1998L196.646 10.744ZM186.47 45.592L185.807 44.843L183.83 46.592H186.47V45.592ZM177.542 55.384V54.384H176.581L176.543 55.344L177.542 55.384ZM179.654 76.888L178.786 77.3841L178.79 77.3919L178.794 77.3995L179.654 76.888ZM194.438 78.424L195.057 79.2095L194.438 78.424ZM201.926 70.936L202.682 71.5904L202.685 71.5868L201.926 70.936ZM184.454 20.056L183.559 19.6088L183.555 19.6185L184.454 20.056ZM181.094 30.04L180.124 29.794L180.122 29.8044L181.094 30.04ZM178.502 44.152L177.511 44.0174L177.155 46.638L179.156 44.9085L178.502 44.152ZM186.95 33.208L186.044 32.7835L186.041 32.7898L186.95 33.208ZM204.518 70.592C204.965 70.592 205.29 70.7614 205.574 71.2479L207.302 70.2401C206.689 69.1906 205.734 68.592 204.518 68.592V70.592ZM205.606 71.2987C205.969 71.8434 206.206 72.68 206.206 73.912H208.206C208.206 72.456 207.931 71.1806 207.27 70.1893L205.606 71.2987ZM206.206 73.912C206.206 76.3222 205.634 78.0423 204.625 79.2104L206.139 80.5176C207.562 78.8697 208.206 76.6218 208.206 73.912H206.206ZM204.605 79.234C201.909 82.5566 198.974 85.2697 195.803 87.3839L196.912 89.048C200.269 86.8103 203.35 83.9554 206.158 80.494L204.605 79.234ZM195.803 87.3839C192.716 89.4419 189.168 90.48 185.126 90.48V92.48C189.531 92.48 193.471 91.342 196.912 89.048L195.803 87.3839ZM185.126 90.48C178.863 90.48 174.298 88.2961 171.253 84.0126C168.164 79.6665 166.542 73.0239 166.542 63.928H164.542C164.542 73.2001 166.184 80.3335 169.623 85.1714C173.106 90.0719 178.333 92.48 185.126 92.48V90.48ZM166.542 63.928C166.542 61.1347 166.637 58.3089 166.828 55.4505L164.832 55.3175C164.639 58.2191 164.542 61.0893 164.542 63.928H166.542ZM165.83 54.384H162.086V56.384H165.83V54.384ZM162.086 54.384C160.213 54.384 159.261 54.0255 158.857 53.6209L157.443 55.0351C158.446 56.0385 160.118 56.384 162.086 56.384V54.384ZM158.89 53.6553C158.494 53.2199 158.19 52.3997 158.19 50.968H156.19C156.19 52.6082 156.526 54.0281 157.41 55.0007L158.89 53.6553ZM158.19 50.968C158.19 49.2836 158.532 48.2055 159.049 47.5624C159.533 46.961 160.289 46.592 161.51 46.592V44.592C159.851 44.592 158.447 45.119 157.49 46.3096C156.567 47.4585 156.19 49.0684 156.19 50.968H158.19ZM161.51 46.592H166.982V44.592H161.51V46.592ZM167.97 45.7447C169.049 38.7655 170.696 32.4038 172.907 26.655L171.04 25.937C168.771 31.8362 167.091 38.3385 165.993 45.4393L167.97 45.7447ZM172.907 26.655C175.117 20.9097 177.748 16.3873 180.778 13.048L179.297 11.704C176.055 15.2767 173.311 20.0343 171.04 25.937L172.907 26.655ZM180.772 13.0554C183.841 9.74087 187.016 8.192 190.31 8.192V6.192C186.308 6.192 182.635 8.09912 179.304 11.6966L180.772 13.0554ZM190.31 8.192C192.639 8.192 194.444 9.18735 195.807 11.2882L197.485 10.1998C195.775 7.56465 193.356 6.192 190.31 6.192V8.192ZM195.807 11.2882C197.213 13.4556 197.95 16.2294 197.95 19.672H199.95C199.95 15.9466 199.151 12.7684 197.485 10.1998L195.807 11.2882ZM197.95 19.672C197.95 29.2694 193.941 37.6475 185.807 44.843L187.132 46.341C195.638 38.8165 199.95 29.9146 199.95 19.672H197.95ZM186.47 46.592H197.222V44.592H186.47V46.592ZM197.222 46.592C198.137 46.592 198.55 46.7981 198.723 46.9711L200.137 45.5569C199.414 44.8339 198.354 44.592 197.222 44.592V46.592ZM198.723 46.9711C198.872 47.1203 199.102 47.5933 199.102 48.76H201.102C201.102 47.4947 200.884 46.3037 200.137 45.5569L198.723 46.9711ZM199.102 48.76C199.102 50.6375 198.364 51.9613 196.869 52.8745C195.293 53.8367 192.801 54.384 189.254 54.384V56.384C192.939 56.384 195.871 55.8273 197.911 54.5815C200.031 53.2867 201.102 51.2985 201.102 48.76H199.102ZM189.254 54.384H177.542V56.384H189.254V54.384ZM176.543 55.344C176.414 58.5488 176.35 61.0602 176.35 62.872H178.35C178.35 61.0998 178.413 58.6192 178.541 55.424L176.543 55.344ZM176.35 62.872C176.35 69.5447 177.109 74.4505 178.786 77.3841L180.522 76.3919C179.126 73.9495 178.35 69.5113 178.35 62.872H176.35ZM178.794 77.3995C180.592 80.4201 183.433 81.92 187.142 81.92V79.92C184.066 79.92 181.915 78.7319 180.513 76.3765L178.794 77.3995ZM187.142 81.92C190.113 81.92 192.764 81.0159 195.057 79.2095L193.819 77.6385C191.888 79.1601 189.675 79.92 187.142 79.92V81.92ZM195.057 79.2095C197.24 77.4895 199.783 74.9402 202.682 71.5904L201.17 70.2816C198.308 73.5878 195.86 76.0305 193.819 77.6385L195.057 79.2095ZM202.685 71.5868C203.31 70.8571 203.915 70.592 204.518 70.592V68.592C203.2 68.592 202.077 69.2229 201.166 70.2852L202.685 71.5868ZM187.718 15.408C186.807 15.408 186.044 15.9747 185.437 16.6532C184.807 17.3568 184.184 18.3586 183.559 19.6088L185.348 20.5032C185.939 19.3214 186.469 18.4992 186.927 17.9868C187.408 17.4493 187.669 17.408 187.718 17.408V15.408ZM183.555 19.6185C182.359 22.0752 181.22 25.4781 180.124 29.7941L182.063 30.2859C183.144 26.0259 184.244 22.7728 185.353 20.4935L183.555 19.6185ZM180.122 29.8044C179.088 34.0676 178.219 38.806 177.511 44.0174L179.493 44.2866C180.193 39.13 181.051 34.4604 182.066 30.2756L180.122 29.8044ZM179.156 44.9085C183.026 41.5628 185.935 37.8031 187.858 33.6261L186.041 32.7898C184.252 36.6769 181.529 40.2132 177.848 43.3955L179.156 44.9085ZM187.855 33.6324C189.816 29.4487 190.83 25.5895 190.83 22.072H188.83C188.83 25.2105 187.923 28.7753 186.044 32.7836L187.855 33.6324ZM190.83 22.072C190.83 20.1502 190.654 18.5893 190.239 17.4746C190.029 16.9108 189.733 16.3966 189.308 16.0165C188.862 15.6177 188.317 15.408 187.718 15.408V17.408C187.822 17.408 187.893 17.4343 187.975 17.5075C188.078 17.5994 188.223 17.7932 188.365 18.1734C188.653 18.9466 188.83 20.2178 188.83 22.072H190.83ZM211.581 88.216L211.055 89.0666L211.062 89.0708L211.581 88.216ZM203.229 78.808L202.332 79.2497L202.335 79.2552L203.229 78.808ZM206.397 37.144L207.29 37.594L207.292 37.5912L206.397 37.144ZM224.829 17.176L225.353 18.0281L225.357 18.0251L224.829 17.176ZM263.517 10.264L263.384 11.2551L263.386 11.2554L263.517 10.264ZM272.733 12.28L272.424 13.2309L272.441 13.2365L272.459 13.2415L272.733 12.28ZM273.501 20.824L272.747 20.1678L272.738 20.1774L272.73 20.1871L273.501 20.824ZM268.029 22.936L268.272 21.9659L268.263 21.9636L268.254 21.9616L268.029 22.936ZM259.485 21.304L259.325 22.2911L259.338 22.2932L259.351 22.295L259.485 21.304ZM231.261 26.68L231.827 27.5049L231.833 27.5005L231.261 26.68ZM217.437 75.832L216.619 76.4066L216.626 76.4166L216.633 76.4264L217.437 75.832ZM236.157 75.448L236.893 76.1251L236.157 75.448ZM244.221 59.896L245.168 60.2173L244.221 59.896ZM251.421 30.712L250.443 30.5025L250.441 30.5126L250.439 30.5228L251.421 30.712ZM253.725 27.064L254.211 27.9382L253.725 27.064ZM264.861 32.44L265.827 32.6989L265.829 32.6907L265.831 32.6825L264.861 32.44ZM260.253 53.08L259.27 52.8967L259.269 52.9033L260.253 53.08ZM259.773 77.752L258.931 78.2911L258.936 78.2989L258.941 78.3067L259.773 77.752ZM270.333 78.04L270.92 78.8499L270.929 78.8434L270.938 78.8367L270.333 78.04ZM277.341 70.936L276.582 70.2852L276.578 70.2901L277.341 70.936ZM281.853 70.744L280.989 71.2479L281.005 71.2738L281.021 71.2987L281.853 70.744ZM280.797 79.864L281.567 80.5029L281.568 80.5009L280.797 79.864ZM271.581 88.504L271.031 87.6692L271.581 88.504ZM249.693 87.64L249.003 88.3638L249.012 88.3722L249.693 87.64ZM244.509 76.6L245.498 76.453L245.017 73.2152L243.607 76.1692L244.509 76.6ZM223.581 90.48C219.338 90.48 215.519 89.4371 212.1 87.3612L211.062 89.0708C214.811 91.3469 218.992 92.48 223.581 92.48V90.48ZM212.107 87.3654C208.762 85.2972 206.098 82.309 204.124 78.3608L202.335 79.2552C204.457 83.499 207.361 86.7828 211.055 89.0666L212.107 87.3654ZM204.126 78.3663C202.159 74.3701 201.157 69.6312 201.157 64.12H199.157C199.157 69.8728 200.203 74.9259 202.332 79.2497L204.126 78.3663ZM201.157 64.12C201.157 54.5399 203.204 45.7031 207.29 37.594L205.504 36.694C201.27 45.0969 199.157 54.2441 199.157 64.12H201.157ZM207.292 37.5912C211.366 29.4426 217.379 22.925 225.353 18.0281L224.306 16.3239C216.023 21.4109 209.749 28.2054 205.503 36.6968L207.292 37.5912ZM225.357 18.0251C233.299 13.0851 242.868 10.592 254.109 10.592V8.592C242.566 8.592 232.616 11.1549 224.301 16.3269L225.357 18.0251ZM254.109 10.592C257.003 10.592 260.094 10.8122 263.384 11.2551L263.651 9.27294C260.284 8.81979 257.104 8.592 254.109 8.592V10.592ZM263.386 11.2554C266.728 11.6968 269.739 12.3569 272.424 13.2309L273.043 11.3291C270.223 10.4111 267.09 9.72721 263.648 9.27261L263.386 11.2554ZM272.459 13.2415C273.178 13.4471 273.638 13.78 273.93 14.1975C274.229 14.6241 274.421 15.238 274.421 16.12H276.421C276.421 14.954 276.166 13.9039 275.568 13.0505C274.965 12.188 274.08 11.6249 273.008 11.3185L272.459 13.2415ZM274.421 16.12C274.421 17.5023 273.897 18.8447 272.747 20.1678L274.256 21.4802C275.665 19.8593 276.421 18.0657 276.421 16.12H274.421ZM272.73 20.1871C271.673 21.4671 270.501 22.032 269.181 22.032V24.032C271.19 24.032 272.898 23.1249 274.272 21.4609L272.73 20.1871ZM269.181 22.032C268.69 22.032 268.405 21.9993 268.272 21.9659L267.787 23.9061C268.165 24.0007 268.649 24.032 269.181 24.032V22.032ZM268.254 21.9616C264.908 21.1893 262.028 20.6385 259.619 20.313L259.351 22.295C261.679 22.6095 264.495 23.1466 267.804 23.9104L268.254 21.9616ZM259.645 20.3169C257.22 19.9236 254.67 19.728 251.997 19.728V21.728C254.573 21.728 257.015 21.9164 259.325 22.2911L259.645 20.3169ZM251.997 19.728C243.701 19.728 236.581 21.7557 230.69 25.8595L231.833 27.5005C237.334 23.6683 244.038 21.728 251.997 21.728V19.728ZM230.696 25.8551C224.842 29.8675 220.466 35.2005 217.576 41.8326L219.41 42.6314C222.153 36.3355 226.289 31.3005 231.827 27.5049L230.696 25.8551ZM217.576 41.8326C214.702 48.4303 213.269 55.5432 213.269 63.16H215.269C215.269 55.8008 216.652 48.9617 219.41 42.6314L217.576 41.8326ZM213.269 63.16C213.269 68.712 214.344 73.1672 216.619 76.4066L218.256 75.2574C216.306 72.4808 215.269 68.488 215.269 63.16H213.269ZM216.633 76.4264C218.985 79.6078 222.091 81.248 225.885 81.248V79.248C222.768 79.248 220.242 77.9442 218.241 75.2376L216.633 76.4264ZM225.885 81.248C230.102 81.248 233.784 79.5049 236.893 76.1251L235.421 74.7709C232.643 77.7911 229.476 79.248 225.885 79.248V81.248ZM236.893 76.1251C239.977 72.773 242.72 67.4337 245.168 60.2173L243.274 59.5747C240.859 66.6943 238.225 71.723 235.421 74.7709L236.893 76.1251ZM245.168 60.2173C247.621 52.9874 250.031 43.2092 252.403 30.9012L250.439 30.5228C248.075 42.7908 245.685 52.4686 243.274 59.5747L245.168 60.2173ZM252.399 30.9215C252.747 29.2971 253.398 28.3897 254.211 27.9382L253.24 26.1898C251.748 27.0183 250.863 28.5429 250.443 30.5025L252.399 30.9215ZM254.211 27.9382C255.162 27.4099 256.511 27.104 258.333 27.104V25.104C256.316 25.104 254.593 25.4381 253.24 26.1898L254.211 27.9382ZM258.333 27.104C260.529 27.104 262.004 27.4655 262.902 28.0472C263.725 28.5805 264.149 29.3517 264.149 30.52H266.149C266.149 28.7443 265.438 27.3075 263.989 26.3687C262.615 25.4785 260.681 25.104 258.333 25.104V27.104ZM264.149 30.52C264.149 30.9186 264.073 31.4707 263.891 32.1975L265.831 32.6825C266.034 31.8733 266.149 31.1454 266.149 30.52H264.149ZM263.895 32.1811C262.224 38.4183 260.682 45.324 259.27 52.8967L261.236 53.2633C262.64 45.732 264.171 38.8777 265.827 32.6989L263.895 32.1811ZM259.269 52.9033C257.922 60.4058 257.237 66.1726 257.237 70.168H259.237C259.237 66.3554 259.896 60.7301 261.238 53.2567L259.269 52.9033ZM257.237 70.168C257.237 73.6803 257.75 76.4454 258.931 78.2911L260.616 77.2129C259.749 75.8586 259.237 73.5677 259.237 70.168H257.237ZM258.941 78.3067C260.18 80.1646 262.087 81.056 264.477 81.056V79.056C262.643 79.056 261.415 78.4114 260.605 77.1973L258.941 78.3067ZM264.477 81.056C266.761 81.056 268.914 80.3021 270.92 78.8499L269.747 77.2301C268.04 78.4659 266.29 79.056 264.477 79.056V81.056ZM270.938 78.8367C272.882 77.3614 275.275 74.9264 278.105 71.5819L276.578 70.2901C273.776 73.6016 271.496 75.9026 269.729 77.2433L270.938 78.8367ZM278.1 71.5868C278.726 70.8571 279.331 70.592 279.933 70.592V68.592C278.616 68.592 277.493 69.2229 276.582 70.2852L278.1 71.5868ZM279.933 70.592C280.381 70.592 280.706 70.7614 280.989 71.2479L282.717 70.2401C282.105 69.1906 281.15 68.592 279.933 68.592V70.592ZM281.021 71.2987C281.384 71.8434 281.621 72.68 281.621 73.912H283.621C283.621 72.456 283.346 71.1806 282.685 70.1893L281.021 71.2987ZM281.621 73.912C281.621 76.2478 281.054 77.9831 280.026 79.2271L281.568 80.5009C282.973 78.8009 283.621 76.5682 283.621 73.912H281.621ZM280.028 79.2251C276.934 82.9508 273.933 85.755 271.031 87.6692L272.132 89.3388C275.246 87.285 278.389 84.3292 281.567 80.5029L280.028 79.2251ZM271.031 87.6692C268.217 89.5248 264.739 90.48 260.541 90.48V92.48C265.048 92.48 268.929 91.4512 272.132 89.3388L271.031 87.6692ZM260.541 90.48C256.263 90.48 252.907 89.2636 250.374 86.9078L249.012 88.3722C251.984 91.1364 255.86 92.48 260.541 92.48V90.48ZM250.383 86.9163C247.83 84.482 246.178 81.0269 245.498 76.453L243.52 76.747C244.248 81.6451 246.052 85.55 249.003 88.3637L250.383 86.9163ZM243.607 76.1692C241.292 81.0183 238.461 84.5877 235.146 86.945C231.84 89.2953 227.998 90.48 223.581 90.48V92.48C228.38 92.48 232.634 91.1847 236.305 88.575C239.965 85.9723 242.991 82.1017 245.412 77.0308L243.607 76.1692ZM328.042 70.744L327.178 71.2479L327.193 71.2738L327.21 71.2987L328.042 70.744ZM326.986 79.864L326.229 79.2104L326.219 79.222L326.209 79.234L326.986 79.864ZM318.058 88.216L317.496 87.389L317.488 87.3944L318.058 88.216ZM299.05 87.832L299.805 87.1763L299.235 86.5198L298.506 86.9932L299.05 87.832ZM287.626 91.48L287.61 90.4801L286.69 90.495L286.628 91.4128L287.626 91.48ZM281.962 122.392L281.02 122.056L281.019 122.058L281.962 122.392ZM263.146 98.776L262.201 98.4489L262.2 98.4511L263.146 98.776ZM276.49 71.224L277.348 71.7377L277.49 71.5005V71.224H276.49ZM276.298 51.736L275.299 51.7705L275.299 51.7711L276.298 51.736ZM278.506 47.32L279.084 48.136L278.506 47.32ZM287.146 46.552L286.439 47.2591L286.478 47.2983L286.521 47.3329L287.146 46.552ZM288.202 49.72H289.202V49.7L289.201 49.68L288.202 49.72ZM288.298 53.272L287.301 53.355L287.51 55.8578L289.079 53.8967L288.298 53.272ZM294.346 47.8L294.827 48.6768L294.838 48.6709L294.848 48.6648L294.346 47.8ZM309.418 50.392L308.629 51.006L308.637 51.0167L309.418 50.392ZM311.242 71.608L310.295 71.2861L311.242 71.608ZM306.73 80.344L305.923 79.7535L305.076 80.9114L306.455 81.3055L306.73 80.344ZM323.53 70.936L322.771 70.2852L322.764 70.2931L323.53 70.936ZM288.106 82.264L287.107 82.224L287.055 83.522L288.323 83.2402L288.106 82.264ZM294.442 78.52L293.724 77.8242L293.723 77.8246L294.442 78.52ZM299.146 71.032L300.077 71.3964L300.08 71.3896L299.146 71.032ZM299.722 57.304L298.922 57.904L298.931 57.9165L298.941 57.9287L299.722 57.304ZM288.298 63.064L287.468 62.5068L287.305 62.7493L287.298 63.0413L288.298 63.064ZM274.09 114.136L273.102 113.984L273.101 113.985L274.09 114.136ZM276.298 86.104L277.298 86.1326L275.379 85.709L276.298 86.104ZM269.77 104.44L268.806 104.175L269.77 104.44ZM268.138 123.832L269.063 123.451L269.053 123.428L269.043 123.406L268.138 123.832ZM326.122 70.592C326.57 70.592 326.894 70.7614 327.178 71.2479L328.906 70.2401C328.294 69.1906 327.338 68.592 326.122 68.592V70.592ZM327.21 71.2987C327.573 71.8434 327.81 72.68 327.81 73.912H329.81C329.81 72.456 329.535 71.1806 328.874 70.1893L327.21 71.2987ZM327.81 73.912C327.81 76.3222 327.238 78.0423 326.229 79.2104L327.743 80.5176C329.166 78.8697 329.81 76.6218 329.81 73.912H327.81ZM326.209 79.234C323.511 82.5598 320.605 85.2744 317.496 87.3891L318.62 89.0429C321.911 86.8056 324.957 83.9522 327.763 80.494L326.209 79.234ZM317.488 87.3944C314.529 89.4475 311.146 90.48 307.306 90.48V92.48C311.53 92.48 315.315 91.3365 318.628 89.0376L317.488 87.3944ZM307.306 90.48C304.186 90.48 301.716 89.3767 299.805 87.1763L298.295 88.4877C300.608 91.1513 303.642 92.48 307.306 92.48V90.48ZM298.506 86.9932C294.999 89.2691 291.372 90.4194 287.61 90.4801L287.642 92.4799C291.816 92.4126 295.805 91.1309 299.594 88.6708L298.506 86.9932ZM286.628 91.4128C285.8 103.708 283.923 113.914 281.02 122.056L282.904 122.728C285.889 114.358 287.788 103.956 288.624 91.5472L286.628 91.4128ZM281.019 122.058C278.126 130.236 274.055 133.872 269.002 133.872V135.872C275.341 135.872 279.91 131.188 282.905 122.726L281.019 122.058ZM269.002 133.872C265.821 133.872 263.602 132.745 262.154 130.573L260.49 131.683C262.37 134.503 265.271 135.872 269.002 135.872V133.872ZM262.154 130.573C260.64 128.302 259.826 125.067 259.826 120.76H257.826C257.826 125.285 258.676 128.962 260.49 131.683L262.154 130.573ZM259.826 120.76C259.826 114.634 261.234 107.42 264.092 99.1009L262.2 98.4511C259.298 106.9 257.826 114.342 257.826 120.76H259.826ZM264.091 99.1031C266.943 90.8654 271.357 81.7447 277.348 71.7377L275.632 70.7103C269.591 80.7993 265.109 90.0466 262.201 98.4489L264.091 99.1031ZM277.49 71.224C277.49 61.8808 277.426 55.3686 277.297 51.7009L275.299 51.7711C275.426 55.3994 275.49 61.8792 275.49 71.224H277.49ZM277.297 51.7015C277.245 50.1874 277.818 49.0327 279.084 48.136L277.928 46.504C276.122 47.7833 275.223 49.5726 275.299 51.7705L277.297 51.7015ZM279.084 48.136C280.416 47.1923 282.122 46.688 284.266 46.688V44.688C281.802 44.688 279.668 45.2717 277.928 46.504L279.084 48.136ZM284.266 46.688C285.508 46.688 286.141 46.9612 286.439 47.2591L287.853 45.8449C286.999 44.9908 285.712 44.688 284.266 44.688V46.688ZM286.521 47.3329C286.795 47.5518 287.14 48.2018 287.203 49.76L289.201 49.68C289.136 48.0382 288.777 46.5762 287.771 45.7711L286.521 47.3329ZM287.202 49.72C287.202 51.3249 287.234 52.5435 287.301 53.355L289.295 53.189C289.234 52.4645 289.202 51.3151 289.202 49.72H287.202ZM289.079 53.8967C291.078 51.3973 292.998 49.6796 294.827 48.6768L293.865 46.9232C291.726 48.0964 289.614 50.0267 287.517 52.6473L289.079 53.8967ZM294.848 48.6648C296.683 47.5991 298.623 47.072 300.682 47.072V45.072C298.261 45.072 295.977 45.6969 293.844 46.9352L294.848 48.6648ZM300.682 47.072C303.951 47.072 306.574 48.3644 308.629 51.0059L310.207 49.7781C307.782 46.6596 304.581 45.072 300.682 45.072V47.072ZM308.637 51.0167C310.765 53.6766 311.874 57.2134 311.874 61.72H313.874C313.874 56.8826 312.679 52.8674 310.199 49.7673L308.637 51.0167ZM311.874 61.72C311.874 65.0029 311.348 68.1901 310.295 71.2861L312.189 71.9299C313.312 68.6259 313.874 65.2211 313.874 61.72H311.874ZM310.295 71.2861C309.239 74.3938 307.781 77.2146 305.923 79.7535L307.537 80.9345C309.519 78.2254 311.069 75.2222 312.189 71.9299L310.295 71.2861ZM306.455 81.3055C307.845 81.7025 309.064 81.92 310.09 81.92V79.92C309.324 79.92 308.303 79.7535 307.005 79.3825L306.455 81.3055ZM310.09 81.92C312.465 81.92 314.696 81.0503 316.763 79.3969L315.513 77.8351C313.74 79.2537 311.939 79.92 310.09 79.92V81.92ZM316.763 79.3969C318.761 77.7978 321.276 75.1768 324.296 71.5789L322.764 70.2931C319.768 73.8632 317.355 76.3622 315.513 77.8351L316.763 79.3969ZM324.289 71.5868C324.915 70.8571 325.52 70.592 326.122 70.592V68.592C324.804 68.592 323.681 69.2229 322.771 70.2852L324.289 71.5868ZM288.323 83.2402C290.849 82.6789 293.128 81.3157 295.161 79.2154L293.723 77.8246C291.916 79.6923 289.971 80.8251 287.889 81.2878L288.323 83.2402ZM295.16 79.2158C297.246 77.0627 298.882 74.4504 300.077 71.3964L298.215 70.6676C297.106 73.5016 295.606 75.8813 293.724 77.8242L295.16 79.2158ZM300.08 71.3896C301.276 68.2659 301.874 65.0086 301.874 61.624H299.874C299.874 64.7674 299.32 67.7821 298.212 70.6744L300.08 71.3896ZM301.874 61.624C301.874 59.5972 301.473 57.892 300.503 56.6793L298.941 57.9287C299.507 58.636 299.874 59.8108 299.874 61.624H301.874ZM300.522 56.704C299.565 55.4282 298.245 54.768 296.65 54.768V56.768C297.615 56.768 298.343 57.1318 298.922 57.904L300.522 56.704ZM296.65 54.768C295.147 54.768 293.646 55.5544 292.176 56.8389C290.692 58.1357 289.124 60.0392 287.468 62.5068L289.128 63.6212C290.737 61.2248 292.192 59.4803 293.492 58.3451C294.806 57.1976 295.849 56.768 296.65 56.768V54.768ZM287.298 63.0413C287.234 65.8689 287.202 70.006 287.202 75.448H289.202C289.202 70.01 289.234 65.8911 289.298 63.0867L287.298 63.0413ZM287.202 75.448C287.202 78.3877 287.17 80.6441 287.107 82.224L289.105 82.304C289.17 80.6839 289.202 78.3963 289.202 75.448H287.202ZM269.77 126.464C270.607 126.464 271.276 125.997 271.778 125.399C272.277 124.804 272.703 123.979 273.08 122.988C273.839 120.999 274.5 118.083 275.079 114.287L273.101 113.985C272.528 117.741 271.893 120.489 271.212 122.276C270.869 123.173 270.539 123.764 270.246 124.113C269.956 124.459 269.797 124.464 269.77 124.464V126.464ZM275.078 114.288C276.239 106.745 276.977 97.3563 277.298 86.1326L275.298 86.0754C274.979 97.2517 274.245 106.551 273.102 113.984L275.078 114.288ZM275.379 85.709C272.612 92.145 270.42 98.3006 268.806 104.175L270.734 104.705C272.32 98.9314 274.48 92.863 277.217 86.499L275.379 85.709ZM268.806 104.175C267.193 110.045 266.37 115.037 266.37 119.128H268.37C268.37 115.283 269.147 110.483 270.734 104.705L268.806 104.175ZM266.37 119.128C266.37 121.234 266.629 122.974 267.233 124.258L269.043 123.406C268.623 122.514 268.37 121.118 268.37 119.128H266.37ZM267.213 124.213C267.68 125.345 268.459 126.464 269.77 126.464V124.464C269.768 124.464 269.714 124.474 269.589 124.349C269.446 124.206 269.26 123.931 269.063 123.451L267.213 124.213ZM355.541 76.12L354.654 75.6579L354.651 75.6627L355.541 76.12ZM346.229 87.064L345.644 86.2529L345.637 86.2576L346.229 87.064ZM333.845 91.48L333.816 90.4804L332.908 90.5067L332.847 91.4128L333.845 91.48ZM328.181 122.392L327.239 122.056L327.238 122.058L328.181 122.392ZM309.365 98.776L308.42 98.4489L308.419 98.4511L309.365 98.776ZM322.709 71.224L323.567 71.7377L323.709 71.5005V71.224H322.709ZM322.517 51.736L321.517 51.7705L321.517 51.7711L322.517 51.736ZM324.725 47.32L325.303 48.136L324.725 47.32ZM333.365 46.552L332.658 47.2591L332.697 47.2983L332.74 47.3329L333.365 46.552ZM334.421 49.72H335.421V49.7L335.42 49.68L334.421 49.72ZM334.517 53.272L333.52 53.355L333.729 55.8578L335.298 53.8967L334.517 53.272ZM340.565 47.8L341.046 48.6768L341.056 48.6709L341.067 48.6648L340.565 47.8ZM355.637 50.392L354.847 51.006L354.856 51.0167L355.637 50.392ZM334.325 82.264L333.326 82.224L333.274 83.522L334.542 83.2402L334.325 82.264ZM340.661 78.52L339.943 77.8242L339.942 77.8246L340.661 78.52ZM345.365 71.032L346.296 71.3964L346.299 71.3896L345.365 71.032ZM345.941 57.304L345.141 57.904L345.15 57.9165L345.16 57.9287L345.941 57.304ZM334.517 63.064L333.686 62.5068L333.524 62.7493L333.517 63.0413L334.517 63.064ZM320.309 114.136L319.32 113.984L319.32 113.985L320.309 114.136ZM322.517 86.104L323.516 86.1326L321.598 85.709L322.517 86.104ZM315.989 104.44L315.024 104.175L315.989 104.44ZM314.357 123.832L315.281 123.451L315.272 123.428L315.262 123.406L314.357 123.832ZM358.093 61.72C358.093 66.6129 356.949 71.2546 354.654 75.6579L356.428 76.5821C358.869 71.8974 360.093 66.9391 360.093 61.72H358.093ZM354.651 75.6627C352.416 80.0091 349.414 83.5336 345.644 86.253L346.814 87.875C350.852 84.9624 354.057 81.1909 356.43 76.5773L354.651 75.6627ZM345.637 86.2576C341.948 88.9635 338.013 90.3588 333.816 90.4804L333.874 92.4796C338.508 92.3452 342.83 90.7965 346.82 87.8704L345.637 86.2576ZM332.847 91.4128C332.019 103.708 330.142 113.914 327.239 122.056L329.123 122.728C332.107 114.358 334.007 103.956 334.842 91.5472L332.847 91.4128ZM327.238 122.058C324.345 130.236 320.273 133.872 315.221 133.872V135.872C321.56 135.872 326.129 131.188 329.123 122.726L327.238 122.058ZM315.221 133.872C312.04 133.872 309.821 132.745 308.373 130.573L306.709 131.683C308.589 134.503 311.49 135.872 315.221 135.872V133.872ZM308.373 130.573C306.859 128.302 306.045 125.067 306.045 120.76H304.045C304.045 125.285 304.895 128.962 306.709 131.683L308.373 130.573ZM306.045 120.76C306.045 114.634 307.453 107.42 310.311 99.1009L308.419 98.4511C305.517 106.9 304.045 114.342 304.045 120.76H306.045ZM310.31 99.1031C313.161 90.8654 317.575 81.7447 323.567 71.7377L321.851 70.7103C315.81 80.7993 311.328 90.0466 308.42 98.4489L310.31 99.1031ZM323.709 71.224C323.709 61.8808 323.645 55.3686 323.516 51.7009L321.517 51.7711C321.645 55.3994 321.709 61.8792 321.709 71.224H323.709ZM323.516 51.7015C323.464 50.1874 324.037 49.0327 325.303 48.136L324.147 46.504C322.341 47.7833 321.442 49.5726 321.517 51.7705L323.516 51.7015ZM325.303 48.136C326.635 47.1923 328.341 46.688 330.485 46.688V44.688C328.021 44.688 325.886 45.2717 324.147 46.504L325.303 48.136ZM330.485 46.688C331.727 46.688 332.36 46.9612 332.658 47.2591L334.072 45.8449C333.218 44.9908 331.93 44.688 330.485 44.688V46.688ZM332.74 47.3329C333.014 47.5518 333.359 48.2018 333.422 49.76L335.42 49.68C335.354 48.0382 334.996 46.5762 333.989 45.7711L332.74 47.3329ZM333.421 49.72C333.421 51.3249 333.453 52.5435 333.52 53.355L335.513 53.189C335.453 52.4645 335.421 51.3151 335.421 49.72H333.421ZM335.298 53.8967C337.297 51.3973 339.217 49.6796 341.046 48.6768L340.084 46.9232C337.945 48.0964 335.832 50.0267 333.736 52.6473L335.298 53.8967ZM341.067 48.6648C342.902 47.5991 344.842 47.072 346.901 47.072V45.072C344.48 45.072 342.195 45.6969 340.063 46.9352L341.067 48.6648ZM346.901 47.072C350.17 47.072 352.793 48.3644 354.847 51.0059L356.426 49.7781C354.001 46.6596 350.8 45.072 346.901 45.072V47.072ZM354.856 51.0167C356.984 53.6766 358.093 57.2134 358.093 61.72H360.093C360.093 56.8826 358.898 52.8674 356.418 49.7673L354.856 51.0167ZM334.542 83.2402C337.067 82.6789 339.347 81.3157 341.379 79.2154L339.942 77.8246C338.135 79.6923 336.19 80.8251 334.108 81.2878L334.542 83.2402ZM341.379 79.2158C343.465 77.0627 345.101 74.4504 346.296 71.3964L344.434 70.6676C343.325 73.5016 341.825 75.8813 339.943 77.8242L341.379 79.2158ZM346.299 71.3896C347.495 68.2659 348.093 65.0086 348.093 61.624H346.093C346.093 64.7674 345.539 67.7821 344.431 70.6744L346.299 71.3896ZM348.093 61.624C348.093 59.5972 347.692 57.892 346.722 56.6793L345.16 57.9287C345.726 58.636 346.093 59.8108 346.093 61.624H348.093ZM346.741 56.704C345.784 55.4282 344.464 54.768 342.869 54.768V56.768C343.834 56.768 344.562 57.1318 345.141 57.904L346.741 56.704ZM342.869 54.768C341.366 54.768 339.865 55.5544 338.395 56.8389C336.91 58.1357 335.342 60.0392 333.686 62.5068L335.347 63.6212C336.955 61.2248 338.411 59.4803 339.711 58.3451C341.024 57.1976 342.068 56.768 342.869 56.768V54.768ZM333.517 63.0413C333.453 65.8689 333.421 70.006 333.421 75.448H335.421C335.421 70.01 335.453 65.8911 335.516 63.0867L333.517 63.0413ZM333.421 75.448C333.421 78.3877 333.389 80.6441 333.326 82.224L335.324 82.304C335.389 80.6839 335.421 78.3963 335.421 75.448H333.421ZM315.989 126.464C316.826 126.464 317.495 125.997 317.997 125.399C318.496 124.804 318.921 123.979 319.299 122.988C320.058 120.999 320.718 118.083 321.297 114.287L319.32 113.985C318.747 117.741 318.112 120.489 317.43 122.276C317.088 123.173 316.758 123.764 316.465 124.113C316.175 124.459 316.016 124.464 315.989 124.464V126.464ZM321.297 114.288C322.458 106.745 323.196 97.3563 323.516 86.1326L321.517 86.0754C321.198 97.2517 320.464 106.551 319.32 113.984L321.297 114.288ZM321.598 85.709C318.831 92.145 316.638 98.3006 315.024 104.175L316.953 104.705C318.539 98.9314 320.699 92.863 323.435 86.499L321.598 85.709ZM315.024 104.175C313.412 110.045 312.589 115.037 312.589 119.128H314.589C314.589 115.283 315.366 110.483 316.953 104.705L315.024 104.175ZM312.589 119.128C312.589 121.234 312.848 122.974 313.452 124.258L315.262 123.406C314.842 122.514 314.589 121.118 314.589 119.128H312.589ZM313.432 124.213C313.898 125.345 314.678 126.464 315.989 126.464V124.464C315.986 124.464 315.933 124.474 315.808 124.349C315.665 124.206 315.479 123.931 315.281 123.451L313.432 124.213Z" fill="#040404" fill-opacity="0.76" mask="url(#path-1-outside-1_1_6)"/>
</g>
<defs>
<filter id="filter0_d_1_6" x="0.144001" y="0.759995" width="362.949" height="146.112" filterUnits="userSpaceOnUse" color-interpolation-filters="sRGB">
<feFlood flood-opacity="0" result="BackgroundImageFix"/>
<feColorMatrix in="SourceAlpha" type="matrix" values="0 0 0 0 0 0 0 0 0 0 0 0 0 0 0 0 0 0 127 0" result="hardAlpha"/>
<feOffset dy="8"/>
<feGaussianBlur stdDeviation="2"/>
<feComposite in2="hardAlpha" operator="out"/>
<feColorMatrix type="matrix" values="0 0 0 0 0 0 0 0 0 0 0 0 0 0 0 0 0 0 0.25 0"/>
<feBlend mode="normal" in2="BackgroundImageFix" result="effect1_dropShadow_1_6"/>
<feBlend mode="normal" in="SourceGraphic" in2="effect1_dropShadow_1_6" result="shape"/>
</filter>
<linearGradient id="paint0_linear_1_6" x1="-2" y1="-34" x2="472.5" y2="-34" gradientUnits="userSpaceOnUse">
<stop stop-color="#FF80A0"/>
<stop offset="0.90625" stop-color="#EED29C"/>
</linearGradient>
</defs>
</svg>
