<svg width="1099" height="304" viewBox="0 0 1099 304" fill="none" xmlns="http://www.w3.org/2000/svg">
<path d="M109.516 245.898C109.516 240.56 108.214 235.872 105.609 231.836C103.005 227.799 98.7083 223.893 92.7188 220.117C86.8594 216.341 78.9167 212.305 68.8906 208.008C59.125 203.971 50.3359 200 42.5234 196.094C34.8411 192.057 28.3307 187.695 22.9922 183.008C17.6536 178.32 13.5521 172.917 10.6875 166.797C7.95312 160.547 6.58594 153.19 6.58594 144.727C6.58594 136.263 8.14844 128.451 11.2734 121.289C14.5286 113.997 19.0859 107.617 24.9453 102.148C30.8047 96.6797 37.8359 92.4479 46.0391 89.4531C54.2422 86.3281 63.4219 84.7656 73.5781 84.7656C88.0312 84.7656 100.336 87.5651 110.492 93.1641C120.648 98.763 128.396 106.445 133.734 116.211C139.203 125.846 141.938 136.719 141.938 148.828H107.562C107.562 142.969 106.26 137.435 103.656 132.227C101.052 127.018 97.2109 122.786 92.1328 119.531C87.0547 116.146 80.8698 114.453 73.5781 114.453C65.8958 114.453 59.6458 115.82 54.8281 118.555C50.0104 121.289 46.4948 124.87 44.2812 129.297C42.1979 133.594 41.1562 138.346 41.1562 143.555C41.1562 147.461 41.6771 150.846 42.7188 153.711C43.8906 156.445 45.8438 159.049 48.5781 161.523C51.3125 163.867 55.0234 166.341 59.7109 168.945C64.5286 171.419 70.6484 174.284 78.0703 177.539C92.3932 183.138 104.438 188.802 114.203 194.531C123.969 200.26 131.391 206.966 136.469 214.648C141.547 222.331 144.086 231.836 144.086 243.164C144.086 252.409 142.393 260.807 139.008 268.359C135.753 275.781 131.065 282.161 124.945 287.5C118.826 292.839 111.469 296.94 102.875 299.805C94.4115 302.539 84.9062 303.906 74.3594 303.906C58.474 303.906 44.9974 300.781 33.9297 294.531C22.9922 288.151 14.6589 279.883 8.92969 269.727C3.33073 259.44 0.53125 248.438 0.53125 236.719H35.1016C35.4922 246.615 37.7057 254.297 41.7422 259.766C45.9089 265.234 50.9219 269.01 56.7812 271.094C62.6406 273.177 68.5 274.219 74.3594 274.219C82.0417 274.219 88.487 273.112 93.6953 270.898C98.9036 268.555 102.81 265.234 105.414 260.938C108.148 256.641 109.516 251.628 109.516 245.898ZM264.984 303.906C252.354 303.906 240.961 302.018 230.805 298.242C220.648 294.466 211.99 288.737 204.828 281.055C197.667 273.242 192.198 263.411 188.422 251.562C184.646 239.714 182.758 225.716 182.758 209.57V185.742C182.758 167.122 184.906 151.367 189.203 138.477C193.63 125.586 199.555 115.234 206.977 107.422C214.398 99.4792 222.797 93.75 232.172 90.2344C241.547 86.5885 251.182 84.7656 261.078 84.7656C274.359 84.7656 285.688 86.9141 295.062 91.2109C304.438 95.5078 312.055 101.888 317.914 110.352C323.773 118.815 328.07 129.232 330.805 141.602C333.669 153.971 335.102 168.229 335.102 184.375V204.492H203.07V175H300.531V170.117C300.01 159.18 298.513 149.544 296.039 141.211C293.695 132.878 289.789 126.367 284.32 121.68C278.852 116.862 271.104 114.453 261.078 114.453C254.698 114.453 248.773 115.56 243.305 117.773C237.966 119.857 233.344 123.568 229.438 128.906C225.661 134.115 222.667 141.341 220.453 150.586C218.37 159.831 217.328 171.549 217.328 185.742V209.57C217.328 220.898 218.37 230.664 220.453 238.867C222.667 246.94 225.857 253.646 230.023 258.984C234.32 264.193 239.529 268.099 245.648 270.703C251.898 273.177 258.995 274.414 266.938 274.414C278.526 274.414 288.096 272.201 295.648 267.773C303.201 263.216 309.776 257.422 315.375 250.391L333.539 272.07C329.763 277.409 324.815 282.552 318.695 287.5C312.706 292.318 305.284 296.289 296.43 299.414C287.706 302.409 277.224 303.906 264.984 303.906ZM452.484 303.906C439.854 303.906 428.461 302.018 418.305 298.242C408.148 294.466 399.49 288.737 392.328 281.055C385.167 273.242 379.698 263.411 375.922 251.562C372.146 239.714 370.258 225.716 370.258 209.57V185.742C370.258 167.122 372.406 151.367 376.703 138.477C381.13 125.586 387.055 115.234 394.477 107.422C401.898 99.4792 410.297 93.75 419.672 90.2344C429.047 86.5885 438.682 84.7656 448.578 84.7656C461.859 84.7656 473.188 86.9141 482.562 91.2109C491.938 95.5078 499.555 101.888 505.414 110.352C511.273 118.815 515.57 129.232 518.305 141.602C521.169 153.971 522.602 168.229 522.602 184.375V204.492H390.57V175H488.031V170.117C487.51 159.18 486.013 149.544 483.539 141.211C481.195 132.878 477.289 126.367 471.82 121.68C466.352 116.862 458.604 114.453 448.578 114.453C442.198 114.453 436.273 115.56 430.805 117.773C425.466 119.857 420.844 123.568 416.938 128.906C413.161 134.115 410.167 141.341 407.953 150.586C405.87 159.831 404.828 171.549 404.828 185.742V209.57C404.828 220.898 405.87 230.664 407.953 238.867C410.167 246.94 413.357 253.646 417.523 258.984C421.82 264.193 427.029 268.099 433.148 270.703C439.398 273.177 446.495 274.414 454.438 274.414C466.026 274.414 475.596 272.201 483.148 267.773C490.701 263.216 497.276 257.422 502.875 250.391L521.039 272.07C517.263 277.409 512.315 282.552 506.195 287.5C500.206 292.318 492.784 296.289 483.93 299.414C475.206 302.409 464.724 303.906 452.484 303.906ZM637.641 274.414C644.542 274.414 650.792 273.047 656.391 270.312C662.12 267.448 666.807 263.021 670.453 257.031C674.099 250.911 676.182 242.969 676.703 233.203H709.125C708.604 247.266 705.023 259.635 698.383 270.312C691.872 280.859 683.279 289.128 672.602 295.117C662.055 300.977 650.401 303.906 637.641 303.906C623.969 303.906 612.055 301.693 601.898 297.266C591.872 292.839 583.539 286.458 576.898 278.125C570.388 269.661 565.505 259.44 562.25 247.461C558.995 235.352 557.367 221.615 557.367 206.25V182.422C557.367 167.057 558.995 153.385 562.25 141.406C565.505 129.297 570.388 119.076 576.898 110.742C583.539 102.279 591.872 95.8333 601.898 91.4062C612.055 86.9792 623.969 84.7656 637.641 84.7656C651.964 84.7656 664.333 87.8255 674.75 93.9453C685.297 99.9349 693.5 108.659 699.359 120.117C705.349 131.445 708.604 145.182 709.125 161.328H676.703C676.182 150.911 674.294 142.253 671.039 135.352C667.784 128.32 663.357 123.112 657.758 119.727C652.159 116.211 645.453 114.453 637.641 114.453C628.526 114.453 620.974 116.081 614.984 119.336C609.125 122.461 604.503 127.018 601.117 133.008C597.732 138.997 595.323 146.159 593.891 154.492C592.589 162.826 591.938 172.135 591.938 182.422V206.25C591.938 216.536 592.589 225.911 593.891 234.375C595.323 242.708 597.667 249.87 600.922 255.859C604.307 261.849 608.995 266.471 614.984 269.727C620.974 272.852 628.526 274.414 637.641 274.414ZM783.734 0V300H749.164V0H783.734ZM775.336 186.328L761.273 185.742C761.143 171.289 762.771 157.943 766.156 145.703C769.672 133.333 774.62 122.591 781 113.477C787.51 104.362 795.258 97.3307 804.242 92.3828C813.227 87.3047 823.188 84.7656 834.125 84.7656C842.719 84.7656 850.531 86.1979 857.562 89.0625C864.594 91.7969 870.583 96.224 875.531 102.344C880.479 108.464 884.255 116.406 886.859 126.172C889.594 135.807 890.961 147.591 890.961 161.523V300H856.391V161.133C856.391 150.065 855.154 141.211 852.68 134.57C850.336 127.799 846.69 122.917 841.742 119.922C836.924 116.797 830.805 115.234 823.383 115.234C816.612 115.234 810.297 117.122 804.438 120.898C798.578 124.674 793.435 129.883 789.008 136.523C784.711 143.164 781.326 150.781 778.852 159.375C776.508 167.839 775.336 176.823 775.336 186.328ZM935.297 204.492V184.375C935.297 167.969 937.38 153.581 941.547 141.211C945.714 128.711 951.508 118.294 958.93 109.961C966.352 101.628 975.01 95.3776 984.906 91.2109C994.802 86.9141 1005.41 84.7656 1016.74 84.7656C1028.33 84.7656 1039.07 86.9141 1048.97 91.2109C1058.86 95.3776 1067.52 101.628 1074.95 109.961C1082.5 118.294 1088.36 128.711 1092.52 141.211C1096.69 153.581 1098.77 167.969 1098.77 184.375V204.492C1098.77 220.898 1096.69 235.352 1092.52 247.852C1088.36 260.221 1082.56 270.573 1075.14 278.906C1067.72 287.24 1059.06 293.49 1049.16 297.656C1039.27 301.823 1028.59 303.906 1017.13 303.906C1005.67 303.906 994.997 301.823 985.102 297.656C975.206 293.49 966.482 287.24 958.93 278.906C951.508 270.573 945.714 260.221 941.547 247.852C937.38 235.352 935.297 220.898 935.297 204.492ZM969.867 184.375V204.492C969.867 216.081 971.039 226.237 973.383 234.961C975.727 243.685 979.047 250.977 983.344 256.836C987.641 262.695 992.654 267.122 998.383 270.117C1004.11 272.982 1010.36 274.414 1017.13 274.414C1024.95 274.414 1031.78 272.982 1037.64 270.117C1043.63 267.122 1048.58 262.695 1052.48 256.836C1056.39 250.977 1059.32 243.685 1061.27 234.961C1063.23 226.237 1064.2 216.081 1064.2 204.492V184.375C1064.2 172.786 1063.03 162.695 1060.69 154.102C1058.34 145.378 1055.02 138.086 1050.73 132.227C1046.43 126.237 1041.35 121.81 1035.49 118.945C1029.76 115.951 1023.51 114.453 1016.74 114.453C1010.1 114.453 1003.92 115.951 998.188 118.945C992.458 121.81 987.445 126.237 983.148 132.227C978.982 138.086 975.727 145.378 973.383 154.102C971.039 162.695 969.867 172.786 969.867 184.375Z" fill="#FFDAA7"/>
</svg>
